<svg width="1344" height="400" viewBox="0 0 1344 400" fill="none" xmlns="http://www.w3.org/2000/svg">
<g opacity="0.5">
<path d="M430 -85L430 443" stroke="url(#paint0_linear_148_2610)" stroke-opacity="0.35"/>
<path d="M342 -85L342 443" stroke="url(#paint1_linear_148_2610)" stroke-opacity="0.35"/>
<path d="M386 -85L386 443" stroke="url(#paint2_linear_148_2610)" stroke-opacity="0.35"/>
<path d="M518 -85L518 443" stroke="url(#paint3_linear_148_2610)" stroke-opacity="0.35"/>
<path d="M474 -85L474 443" stroke="url(#paint4_linear_148_2610)" stroke-opacity="0.35"/>
<path d="M606 -85L606 443" stroke="url(#paint5_linear_148_2610)" stroke-opacity="0.35"/>
<path d="M562 -85L562 443" stroke="url(#paint6_linear_148_2610)" stroke-opacity="0.35"/>
<path d="M694 -85L694 443" stroke="url(#paint7_linear_148_2610)" stroke-opacity="0.35"/>
<path d="M650 -85L650 443" stroke="url(#paint8_linear_148_2610)" stroke-opacity="0.35"/>
<path d="M782 -85L782 443" stroke="url(#paint9_linear_148_2610)" stroke-opacity="0.35"/>
<path d="M738 -85L738 443" stroke="url(#paint10_linear_148_2610)" stroke-opacity="0.35"/>
<path d="M958 -85L958 443" stroke="url(#paint11_linear_148_2610)" stroke-opacity="0.35"/>
<path d="M826 -85L826 443" stroke="url(#paint12_linear_148_2610)" stroke-opacity="0.35"/>
<path d="M870 -85L870 443" stroke="url(#paint13_linear_148_2610)" stroke-opacity="0.35"/>
<path d="M914 -85L914 443" stroke="url(#paint14_linear_148_2610)" stroke-opacity="0.35"/>
<path d="M1046 -85L1046 443" stroke="url(#paint15_linear_148_2610)" stroke-opacity="0.35"/>
<path d="M1002 -85L1002 443" stroke="url(#paint16_linear_148_2610)" stroke-opacity="0.35"/>
<path d="M1134 -85L1134 443" stroke="url(#paint17_linear_148_2610)" stroke-opacity="0.35"/>
<path d="M1090 -85L1090 443" stroke="url(#paint18_linear_148_2610)" stroke-opacity="0.35"/>
<path d="M1222 -85L1222 443" stroke="url(#paint19_linear_148_2610)" stroke-opacity="0.35"/>
<path d="M1178 -85L1178 443" stroke="url(#paint20_linear_148_2610)" stroke-opacity="0.35"/>
<path d="M1310 -85L1310 443" stroke="url(#paint21_linear_148_2610)" stroke-opacity="0.35"/>
<path d="M1266 -85L1266 443" stroke="url(#paint22_linear_148_2610)" stroke-opacity="0.35"/>
<path d="M300 95L1400 95" stroke="url(#paint23_linear_148_2610)" stroke-opacity="0.4"/>
<path d="M300 359L1400 359" stroke="url(#paint24_linear_148_2610)" stroke-opacity="0.4"/>
<path d="M300 139L1400 139" stroke="url(#paint25_linear_148_2610)" stroke-opacity="0.4"/>
<path d="M300 7L1400 7.00001" stroke="url(#paint26_linear_148_2610)" stroke-opacity="0.4"/>
<path d="M300 271L1400 271" stroke="url(#paint27_linear_148_2610)" stroke-opacity="0.4"/>
<path d="M300 183L1400 183" stroke="url(#paint28_linear_148_2610)" stroke-opacity="0.4"/>
<path d="M300 227L1400 227" stroke="url(#paint29_linear_148_2610)" stroke-opacity="0.4"/>
<path d="M300 51L1400 51" stroke="url(#paint30_linear_148_2610)" stroke-opacity="0.4"/>
<path d="M300 315L1400 315" stroke="url(#paint31_linear_148_2610)" stroke-opacity="0.4"/>
</g>
<g clip-path="url(#clip0_148_2610)">
<g clip-path="url(#clip1_148_2610)">
<g clip-path="url(#clip2_148_2610)">
<path fill-rule="evenodd" clip-rule="evenodd" d="M79.61 299.163H26.853H25.481C-3.652 299.163 -27.487 322.999 -27.487 352.131C-27.487 381.264 -3.652 405.099 25.481 405.099H180.115H206.748H483.178C530.353 405.099 568.949 366.503 568.949 319.329C568.949 272.155 530.353 233.559 483.18 233.559C463.234 233.558 446.914 217.24 446.914 197.293C446.914 177.347 463.233 161.027 483.18 161.027H526.825C547.562 161.027 564.529 144.06 564.529 123.323C564.529 102.585 547.562 85.619 526.825 85.619H471.634C463.561 85.619 456.955 79.012 456.955 70.94C456.955 62.867 463.56 56.261 471.634 56.261H481.363C486.934 56.261 491.493 51.702 491.493 46.131C491.493 40.559 486.934 36 481.363 36H444.899C444.899 36 430.966 36 417.522 36C404.077 36 402.58 51.884 368.618 51.884C316.117 51.884 323.264 51.884 270.764 51.884C263.492 51.884 257.544 57.834 257.544 65.103C257.544 72.373 263.493 78.322 270.764 78.322H283.458C293.993 78.322 302.612 86.942 302.612 97.475C302.612 108.009 293.993 116.629 283.458 116.629H264.354C212.763 116.629 205.476 130.111 196.44 156.927C187.404 183.743 140.476 185.905 140.476 185.905H76.308C60.433 185.905 47.443 198.894 47.443 214.77C47.443 230.646 60.432 243.635 76.308 243.635H79.612C94.882 243.635 107.375 256.129 107.375 271.399C107.374 286.669 94.88 299.163 79.61 299.163ZM509.792 56.262C504.196 56.262 499.66 51.726 499.66 46.132C499.66 40.536 504.196 36 509.792 36C515.386 36 519.923 40.536 519.923 46.131C519.923 51.726 515.386 56.262 509.792 56.262Z" fill="#37517E"/>
<path fill-rule="evenodd" clip-rule="evenodd" d="M104.311 320.792H57.726C55.837 320.792 54.294 322.335 54.294 324.224V357.078C54.294 358.966 55.837 360.51 57.726 360.51H104.311C106.2 360.51 107.743 358.966 107.743 357.078V324.224C107.743 322.335 106.199 320.792 104.311 320.792Z" fill="#90A9D5"/>
<path fill-rule="evenodd" clip-rule="evenodd" d="M134.876 320.792H88.291C86.403 320.792 84.859 322.335 84.859 324.224V357.078C84.859 358.966 86.402 360.51 88.291 360.51H134.876C136.765 360.51 138.308 358.966 138.308 357.078V324.224C138.308 322.335 136.765 320.792 134.876 320.792Z" fill="#B6C7E6"/>
<path fill-rule="evenodd" clip-rule="evenodd" d="M128.828 333.909H94.339C93.261 333.909 92.379 334.792 92.379 335.869V345.432C92.379 346.51 93.261 347.393 94.339 347.393H128.828C129.906 347.393 130.789 346.51 130.789 345.432V335.869C130.789 334.792 129.906 333.909 128.828 333.909Z" fill="#90A9D5"/>
<path fill-rule="evenodd" clip-rule="evenodd" d="M113.771 336.197H96.81C96.575 336.197 96.382 336.388 96.382 336.625V338.712C96.382 338.946 96.574 339.139 96.81 339.139H113.771C114.006 339.139 114.198 338.947 114.198 338.712V336.625C114.199 336.388 114.006 336.197 113.771 336.197Z" fill="#E6E4EB"/>
<path fill-rule="evenodd" clip-rule="evenodd" d="M105.19 340.856H96.811C96.576 340.856 96.383 341.047 96.383 341.283V343.37C96.383 343.605 96.575 343.798 96.811 343.798H105.19C105.425 343.798 105.617 343.606 105.617 343.37V341.283C105.617 341.047 105.425 340.856 105.19 340.856Z" fill="#E6E4EB"/>
<path fill-rule="evenodd" clip-rule="evenodd" d="M88.225 360.509H144.048C146.311 360.509 148.162 362.36 148.162 364.622V403.992C148.162 406.255 146.31 408.106 144.048 408.106H88.225C85.962 408.106 84.112 406.254 84.112 403.992V364.622C84.111 362.36 85.962 360.509 88.225 360.509Z" fill="#90A9D5"/>
<path fill-rule="evenodd" clip-rule="evenodd" d="M51.598 360.509H107.421C109.684 360.509 111.534 362.36 111.534 364.622V403.992C111.534 406.255 109.684 408.106 107.421 408.106H51.598C49.335 408.106 47.485 406.254 47.485 403.992V364.622C47.485 362.36 49.335 360.509 51.598 360.509Z" fill="#B6C7E6"/>
<path fill-rule="evenodd" clip-rule="evenodd" d="M58.844 376.23H100.174C101.466 376.23 102.523 377.287 102.523 378.579V390.038C102.523 391.33 101.466 392.387 100.174 392.387H58.844C57.552 392.387 56.495 391.33 56.495 390.038V378.579C56.495 377.287 57.552 376.23 58.844 376.23Z" fill="#90A9D5"/>
<path fill-rule="evenodd" clip-rule="evenodd" d="M76.889 378.97H97.212C97.494 378.97 97.725 379.2 97.725 379.483V381.984C97.725 382.266 97.495 382.497 97.212 382.497H76.889C76.606 382.497 76.376 382.267 76.376 381.984V379.483C76.376 379.201 76.606 378.97 76.889 378.97Z" fill="#E6E4EB"/>
<path fill-rule="evenodd" clip-rule="evenodd" d="M87.172 384.553H97.212C97.495 384.553 97.725 384.783 97.725 385.066V387.567C97.725 387.849 97.495 388.08 97.212 388.08H87.172C86.89 388.08 86.659 387.85 86.659 387.567V385.066C86.659 384.784 86.89 384.553 87.172 384.553Z" fill="#E6E4EB"/>
<path fill-rule="evenodd" clip-rule="evenodd" d="M343.643 146.911C345.028 145.526 346.686 144.408 348.534 143.642C350.31 142.906 352.254 142.5 354.289 142.5C356.324 142.5 358.268 142.906 360.044 143.642C361.891 144.407 363.551 145.525 364.935 146.91C366.32 148.294 367.439 149.954 368.203 151.801C368.938 153.577 369.345 155.521 369.345 157.555C369.345 159.59 368.939 161.534 368.203 163.31C367.437 165.157 366.319 166.816 364.935 168.201C363.551 169.586 361.893 170.704 360.046 171.468C358.271 172.206 356.325 172.612 354.289 172.612C352.254 172.612 350.31 172.205 348.534 171.47C346.687 170.705 345.027 169.587 343.643 168.202C342.258 166.818 341.139 165.159 340.375 163.311C339.64 161.535 339.233 159.591 339.233 157.556C339.233 155.522 339.639 153.577 340.375 151.802C341.14 149.955 342.259 148.296 343.643 146.911ZM349.063 144.928C347.396 145.619 345.892 146.635 344.63 147.897C343.367 149.16 342.352 150.664 341.661 152.33C340.996 153.937 340.629 155.702 340.629 157.556C340.629 159.411 340.996 161.176 341.661 162.783C342.351 164.449 343.367 165.953 344.63 167.216C345.892 168.479 347.396 169.494 349.063 170.184C350.669 170.85 352.435 171.217 354.29 171.217C356.143 171.217 357.907 170.85 359.514 170.184C361.184 169.494 362.688 168.479 363.95 167.216C365.212 165.954 366.227 164.45 366.918 162.783C367.583 161.176 367.95 159.411 367.95 157.556C367.95 155.702 367.583 153.937 366.918 152.33C366.228 150.663 365.212 149.16 363.95 147.897C362.687 146.635 361.183 145.619 359.516 144.929C357.91 144.263 356.144 143.896 354.289 143.896C352.435 143.896 350.669 144.263 349.063 144.928ZM347.398 133.85C346.457 134.121 345.529 134.454 344.624 134.839C343.704 135.23 342.814 135.675 341.959 136.17C341.09 136.672 340.251 137.229 339.448 137.834C338.642 138.442 337.876 139.096 337.155 139.791C336.899 140.037 336.581 140.181 336.254 140.221C335.92 140.262 335.573 140.194 335.272 140.02C333.061 138.744 330.737 137.48 328.571 136.15C328.467 136.095 328.356 136.062 328.246 136.049C328.121 136.036 327.996 136.045 327.877 136.077C327.754 136.11 327.638 136.165 327.537 136.242C327.441 136.315 327.357 136.409 327.294 136.52C325.682 138.958 324.065 142.109 322.571 144.696C322.507 144.806 322.469 144.925 322.454 145.043C322.437 145.167 322.448 145.297 322.482 145.423C322.514 145.546 322.57 145.661 322.647 145.762C322.719 145.858 322.814 145.942 322.924 146.006C324.913 147.321 327.476 148.637 329.583 149.855C329.894 150.032 330.119 150.298 330.248 150.6C330.294 150.705 330.326 150.816 330.348 150.929L330.486 150.975L330.332 151.596C330.211 152.085 330.105 152.574 330.016 153.059C329.93 153.532 329.854 154.028 329.791 154.544C329.73 155.048 329.684 155.548 329.654 156.042C329.625 156.524 329.61 157.03 329.61 157.556C329.61 158.082 329.625 158.587 329.654 159.069C329.683 159.563 329.729 160.064 329.791 160.568C329.854 161.084 329.93 161.579 330.016 162.052C330.106 162.539 330.212 163.028 330.332 163.517C330.422 163.879 330.378 164.243 330.232 164.556C330.089 164.869 329.839 165.131 329.52 165.295L323.622 168.701L323.624 168.704L322.925 169.107C322.814 169.171 322.72 169.255 322.647 169.351C322.572 169.451 322.515 169.567 322.483 169.69C322.449 169.816 322.438 169.946 322.455 170.071C322.471 170.189 322.509 170.307 322.572 170.418L326.938 177.984L326.941 177.983L327.294 178.594C327.358 178.704 327.442 178.798 327.537 178.871C327.638 178.947 327.754 179.003 327.877 179.036C328.002 179.07 328.132 179.079 328.255 179.064C328.372 179.049 328.49 179.01 328.601 178.946C330.713 177.619 333.097 176.352 335.276 175.094C335.587 174.917 335.928 174.855 336.252 174.894C336.587 174.934 336.904 175.081 337.153 175.32L337.156 175.322C337.877 176.018 338.644 176.672 339.45 177.28C340.253 177.884 341.091 178.441 341.96 178.943C342.82 179.441 343.717 179.889 344.644 180.282C345.552 180.668 346.495 181.003 347.467 181.281C347.809 181.379 348.094 181.583 348.294 181.847C348.495 182.116 348.611 182.45 348.611 182.799L348.614 190.495C348.614 190.624 348.639 190.747 348.685 190.857C348.733 190.971 348.805 191.078 348.895 191.168C348.983 191.257 349.089 191.33 349.206 191.378C349.316 191.424 349.438 191.45 349.568 191.45H359.012C359.141 191.45 359.263 191.425 359.373 191.378C359.489 191.33 359.596 191.257 359.685 191.169C359.774 191.078 359.846 190.971 359.894 190.857C359.94 190.748 359.965 190.625 359.965 190.495V182.8C359.965 182.433 360.093 182.094 360.308 181.823C360.525 181.548 360.831 181.345 361.18 181.262C362.122 180.991 363.048 180.66 363.954 180.274C364.873 179.883 365.764 179.437 366.619 178.943C367.488 178.441 368.326 177.884 369.129 177.279C369.936 176.672 370.702 176.017 371.423 175.322C371.691 175.065 372.027 174.921 372.372 174.889C372.722 174.857 373.082 174.942 373.385 175.142L379.973 178.946C380.082 179.01 380.202 179.048 380.323 179.063C380.446 179.079 380.576 179.069 380.702 179.035C380.826 179.002 380.941 178.946 381.042 178.87C381.138 178.797 381.221 178.703 381.285 178.593C382.85 175.862 384.44 173.145 386.008 170.416C386.071 170.306 386.11 170.187 386.125 170.067C386.141 169.943 386.131 169.814 386.097 169.689C386.064 169.565 386.008 169.448 385.933 169.35C385.861 169.252 385.768 169.169 385.661 169.106L378.996 165.257C378.687 165.08 378.46 164.815 378.331 164.512C378.296 164.43 378.267 164.346 378.247 164.259L378.073 164.224L378.248 163.517C378.369 163.029 378.475 162.54 378.564 162.054C378.651 161.58 378.726 161.085 378.79 160.568C378.851 160.065 378.896 159.564 378.927 159.069C378.956 158.587 378.971 158.083 378.971 157.556C378.971 157.031 378.956 156.526 378.927 156.044C378.897 155.551 378.851 155.051 378.79 154.547C378.726 154.024 378.65 153.526 378.564 153.056C378.474 152.571 378.369 152.083 378.248 151.595C378.158 151.231 378.203 150.866 378.349 150.554C378.495 150.242 378.742 149.98 379.058 149.817L385.66 146.006C385.768 145.945 385.86 145.861 385.934 145.763C386.009 145.666 386.065 145.549 386.098 145.423C386.132 145.298 386.142 145.168 386.126 145.045C386.11 144.925 386.072 144.806 386.009 144.696C384.397 142.299 382.782 139.097 381.286 136.52C381.222 136.409 381.139 136.315 381.043 136.242C380.942 136.166 380.827 136.11 380.703 136.077C380.578 136.043 380.448 136.034 380.324 136.049C380.208 136.064 380.089 136.103 379.976 136.168L373.306 140.018C372.992 140.202 372.64 140.263 372.306 140.218C371.971 140.172 371.652 140.018 371.405 139.772C370.68 139.075 369.917 138.424 369.122 137.825C368.33 137.228 367.493 136.675 366.621 136.17C365.761 135.672 364.863 135.225 363.937 134.832C363.029 134.445 362.085 134.11 361.115 133.832C360.772 133.734 360.488 133.53 360.288 133.266C360.085 132.997 359.97 132.663 359.97 132.314L359.967 124.618C359.967 124.489 359.942 124.366 359.897 124.256C359.849 124.142 359.777 124.036 359.686 123.946C359.598 123.856 359.492 123.785 359.375 123.736C359.265 123.69 359.143 123.665 359.014 123.665H349.57C349.44 123.665 349.318 123.69 349.208 123.736C349.092 123.785 348.985 123.857 348.896 123.945C348.724 124.119 348.616 124.358 348.616 124.618V132.314C348.616 132.683 348.489 133.022 348.277 133.291C348.054 133.566 347.747 133.769 347.398 133.85ZM344.079 133.559C343.108 133.973 342.168 134.443 341.263 134.967C340.339 135.501 339.452 136.088 338.61 136.724C337.765 137.361 336.957 138.052 336.191 138.789C336.162 138.817 336.126 138.834 336.086 138.838C336.046 138.843 336.005 138.835 335.971 138.816C333.729 137.522 331.483 136.232 329.244 134.931C328.978 134.787 328.691 134.7 328.402 134.666C328.103 134.632 327.802 134.656 327.517 134.732C327.223 134.811 326.942 134.948 326.694 135.137C326.456 135.319 326.249 135.55 326.091 135.824C324.466 138.456 322.922 141.307 321.368 143.999C321.21 144.273 321.113 144.569 321.075 144.869C321.036 145.18 321.057 145.492 321.136 145.784C321.214 146.079 321.351 146.359 321.541 146.607C321.723 146.846 321.953 147.053 322.227 147.211C324.372 148.535 326.698 149.793 328.891 151.06C328.926 151.08 328.952 151.111 328.967 151.147C328.983 151.184 328.988 151.226 328.978 151.264L328.825 151.887L328.834 151.89C328.767 152.192 328.705 152.499 328.648 152.81C328.55 153.344 328.469 153.869 328.407 154.383C328.346 154.893 328.298 155.42 328.264 155.962C328.232 156.506 328.215 157.039 328.215 157.557C328.215 158.076 328.232 158.608 328.264 159.151C328.297 159.694 328.345 160.222 328.407 160.732C328.47 161.246 328.552 161.771 328.648 162.303C328.746 162.834 328.858 163.349 328.98 163.85C328.991 163.891 328.986 163.934 328.968 163.971C328.948 164.012 328.92 164.044 328.886 164.061C326.437 165.369 323.95 166.908 321.529 168.307L321.615 168.415L321.541 168.507C321.352 168.755 321.215 169.036 321.137 169.331C321.058 169.624 321.036 169.935 321.076 170.247C321.114 170.546 321.211 170.842 321.37 171.116L326.443 179.904L326.537 179.848C326.588 179.893 326.64 179.937 326.694 179.978C326.942 180.167 327.223 180.305 327.517 180.383C327.809 180.461 328.12 180.483 328.43 180.444C328.722 180.407 329.01 180.314 329.277 180.166C331.496 178.988 333.782 177.565 335.973 176.299C336.005 176.281 336.045 176.276 336.084 176.28C336.125 176.285 336.164 176.303 336.193 176.33C336.958 177.067 337.765 177.757 338.61 178.394C339.453 179.029 340.339 179.616 341.26 180.149C342.172 180.676 343.119 181.15 344.096 181.565C345.067 181.978 346.065 182.332 347.083 182.625C347.123 182.636 347.157 182.66 347.181 182.691C347.206 182.725 347.221 182.765 347.218 182.804V190.5C347.218 190.815 347.283 191.118 347.398 191.396C347.519 191.685 347.694 191.944 347.911 192.159C348.128 192.375 348.386 192.55 348.672 192.669C348.949 192.785 349.252 192.849 349.567 192.849H359.011C359.326 192.849 359.628 192.785 359.907 192.669C360.192 192.55 360.451 192.375 360.67 192.159C360.884 191.945 361.059 191.685 361.18 191.396C361.295 191.118 361.36 190.815 361.36 190.5V182.8C361.36 182.754 361.374 182.713 361.397 182.683C361.421 182.653 361.458 182.629 361.501 182.619L361.531 182.608C362.556 182.312 363.547 181.96 364.499 181.554C365.469 181.141 366.41 180.67 367.316 180.147C368.239 179.613 369.125 179.026 369.967 178.391C370.813 177.754 371.621 177.063 372.387 176.325C372.418 176.294 372.458 176.277 372.496 176.274C372.537 176.271 372.579 176.281 372.616 176.304L379.28 180.151C379.553 180.309 379.848 180.405 380.146 180.442C380.455 180.482 380.766 180.46 381.06 180.381C381.354 180.302 381.635 180.165 381.884 179.976C382.116 179.799 382.319 179.574 382.476 179.309C384.227 176.493 385.881 173.409 387.551 170.517L387.461 170.463C387.479 170.39 387.491 170.315 387.501 170.241C387.54 169.931 387.519 169.62 387.44 169.328C387.361 169.033 387.224 168.751 387.034 168.504C386.852 168.265 386.622 168.059 386.349 167.901L379.682 164.053C379.648 164.033 379.622 164.002 379.607 163.966C379.591 163.928 379.586 163.886 379.596 163.845L379.769 163.14L379.759 163.138C379.819 162.864 379.874 162.585 379.927 162.302C380.025 161.769 380.106 161.243 380.168 160.728C380.231 160.217 380.278 159.689 380.311 159.147C380.344 158.604 380.361 158.072 380.361 157.553C380.361 157.035 380.344 156.503 380.311 155.959C380.279 155.417 380.231 154.889 380.168 154.374C380.105 153.864 380.025 153.34 379.927 152.802C379.829 152.274 379.718 151.758 379.595 151.26C379.585 151.22 379.591 151.177 379.608 151.136C379.626 151.1 379.656 151.068 379.693 151.05L386.35 147.206C386.625 147.047 386.855 146.841 387.035 146.602C387.224 146.353 387.362 146.072 387.44 145.78C387.518 145.488 387.54 145.176 387.501 144.867C387.463 144.575 387.37 144.287 387.22 144.017C385.633 141.079 383.814 138.115 382.135 135.208L382.04 135.264C381.989 135.218 381.936 135.175 381.884 135.133C381.635 134.944 381.354 134.807 381.06 134.728C380.768 134.65 380.456 134.628 380.147 134.667C379.845 134.705 379.551 134.8 379.281 134.955L378.788 135.238L378.79 135.243L372.607 138.811C372.569 138.833 372.528 138.839 372.488 138.834C372.449 138.829 372.411 138.811 372.383 138.781L372.367 138.765C371.609 138.036 370.804 137.349 369.953 136.709C369.107 136.073 368.226 135.488 367.314 134.962C366.403 134.436 365.457 133.961 364.48 133.547C363.509 133.134 362.511 132.78 361.493 132.488C361.453 132.477 361.419 132.452 361.396 132.422C361.37 132.388 361.355 132.348 361.358 132.309V124.613C361.358 124.299 361.293 123.995 361.178 123.717C361.057 123.428 360.882 123.169 360.665 122.954C360.448 122.738 360.19 122.564 359.905 122.444C359.627 122.328 359.324 122.264 359.009 122.264H349.565C349.25 122.264 348.947 122.328 348.67 122.444C348.384 122.564 348.126 122.738 347.906 122.954C347.481 123.379 347.216 123.967 347.216 124.612V132.308C347.216 132.353 347.201 132.393 347.178 132.426C347.154 132.456 347.116 132.479 347.074 132.489L347.044 132.5C346.021 132.801 345.03 133.154 344.079 133.559Z" fill="#BFCCE8"/>
<path fill-rule="evenodd" clip-rule="evenodd" d="M15.377 254.221C16.533 253.065 18.131 252.349 19.896 252.349C21.66 252.349 23.258 253.065 24.415 254.221C25.571 255.377 26.287 256.975 26.287 258.74C26.287 260.504 25.572 262.102 24.415 263.258C23.258 264.414 21.661 265.129 19.896 265.129C18.131 265.129 16.534 264.414 15.377 263.258C14.221 262.102 13.505 260.503 13.505 258.74C13.505 256.975 14.221 255.378 15.377 254.221ZM16.757 247.887C15.872 248.143 15.032 248.503 14.253 248.953C13.453 249.416 12.715 249.973 12.055 250.609C11.927 250.733 11.734 250.752 11.587 250.666L8.617 248.952L8.601 248.941C8.431 248.849 8.237 248.833 8.06 248.88C7.877 248.929 7.713 249.047 7.612 249.222L7.6 249.243L5.511 252.861C5.41 253.036 5.39 253.237 5.44 253.421C5.488 253.604 5.607 253.767 5.781 253.868L5.802 253.88L8.747 255.58C8.901 255.67 8.972 255.849 8.932 256.013C8.824 256.451 8.74 256.903 8.684 257.363C8.629 257.813 8.601 258.272 8.601 258.74C8.601 259.208 8.629 259.667 8.684 260.116C8.74 260.578 8.824 261.028 8.932 261.467C8.977 261.65 8.887 261.833 8.725 261.912L5.781 263.611V263.612C5.607 263.714 5.489 263.877 5.44 264.06C5.39 264.243 5.41 264.444 5.511 264.619L7.612 268.258C7.713 268.432 7.877 268.55 8.06 268.599C8.243 268.648 8.443 268.628 8.617 268.528L8.639 268.516L11.587 266.813C11.742 266.725 11.931 266.753 12.054 266.871C12.714 267.507 13.452 268.064 14.251 268.527C15.036 268.98 15.88 269.341 16.772 269.598C16.945 269.647 17.057 269.804 17.058 269.975V273.4C17.058 273.602 17.141 273.786 17.274 273.918C17.408 274.052 17.591 274.135 17.793 274.135H21.996C22.197 274.135 22.381 274.052 22.515 273.918C22.648 273.785 22.731 273.602 22.731 273.4V269.975C22.731 269.789 22.86 269.634 23.033 269.593C23.918 269.337 24.758 268.977 25.537 268.527C26.337 268.064 27.074 267.507 27.734 266.871C27.869 266.741 28.072 266.727 28.222 266.826L31.171 268.528C31.345 268.629 31.546 268.648 31.729 268.599C31.912 268.55 32.076 268.432 32.176 268.258L32.189 268.237L34.278 264.617C34.379 264.443 34.398 264.242 34.348 264.059C34.299 263.876 34.181 263.712 34.008 263.612L31.041 261.899C30.886 261.81 30.815 261.631 30.856 261.466C30.964 261.027 31.047 260.577 31.103 260.115C31.158 259.666 31.186 259.207 31.186 258.739C31.186 258.271 31.158 257.811 31.103 257.362C31.047 256.901 30.963 256.45 30.855 256.012C30.81 255.83 30.9 255.647 31.062 255.568L34.007 253.868C34.18 253.767 34.298 253.603 34.347 253.421C34.396 253.238 34.376 253.037 34.276 252.862L34.264 252.841L32.175 249.223C32.074 249.048 31.909 248.93 31.727 248.881C31.544 248.832 31.343 248.852 31.169 248.952V248.953L28.2 250.667C28.041 250.759 27.846 250.728 27.723 250.602C27.065 249.969 26.33 249.414 25.534 248.955C24.75 248.502 23.905 248.139 23.014 247.884C22.841 247.835 22.728 247.678 22.728 247.507V244.082C22.728 243.88 22.645 243.696 22.512 243.562C22.379 243.429 22.195 243.346 21.993 243.346H17.79C17.588 243.346 17.405 243.429 17.271 243.562C17.138 243.696 17.055 243.879 17.055 244.082V247.507C17.059 247.691 16.93 247.846 16.757 247.887Z" fill="#BFCCE8"/>
<path fill-rule="evenodd" clip-rule="evenodd" d="M149.464 159.939C149.464 159.334 148.973 158.843 148.368 158.843C147.763 158.843 147.272 159.334 147.272 159.939V162.516H144.695C144.09 162.516 143.599 163.007 143.599 163.612C143.599 164.216 144.09 164.708 144.695 164.708H147.272V167.286C147.272 167.891 147.763 168.382 148.368 168.382C148.973 168.382 149.464 167.891 149.464 167.286V164.708H152.042C152.647 164.708 153.138 164.217 153.138 163.612C153.138 163.007 152.647 162.516 152.042 162.516H149.464V159.939Z" fill="#BFCCE8"/>
<path fill-rule="evenodd" clip-rule="evenodd" d="M576.158 59.8201C576.158 59.2151 575.668 58.7241 575.062 58.7241C574.456 58.7241 573.966 59.2151 573.966 59.8201V62.3971H571.389C570.784 62.3971 570.292 62.8881 570.292 63.4941C570.292 64.0991 570.783 64.5901 571.389 64.5901H573.966V67.1681C573.966 67.7731 574.456 68.2641 575.062 68.2641C575.667 68.2641 576.158 67.7731 576.158 67.1681V64.5901H578.736C579.34 64.5901 579.832 64.0991 579.832 63.4941C579.832 62.8881 579.341 62.3971 578.736 62.3971H576.158V59.8201Z" fill="#BFCCE8"/>
<path fill-rule="evenodd" clip-rule="evenodd" d="M290.024 134.022C291.181 132.866 292.779 132.15 294.544 132.15C296.308 132.15 297.905 132.866 299.063 134.022C300.218 135.178 300.934 136.776 300.934 138.541C300.934 140.305 300.218 141.903 299.063 143.059C297.906 144.215 296.308 144.931 294.544 144.931C292.779 144.931 291.182 144.215 290.024 143.059C288.868 141.902 288.153 140.305 288.153 138.541C288.153 136.776 288.868 135.178 290.024 134.022ZM291.405 127.688C290.519 127.944 289.679 128.305 288.9 128.755C288.1 129.217 287.363 129.775 286.703 130.411C286.574 130.535 286.383 130.554 286.235 130.468L283.265 128.754L283.249 128.744C283.078 128.652 282.885 128.635 282.707 128.682C282.524 128.731 282.361 128.848 282.26 129.023L282.248 129.044L280.158 132.662C280.057 132.836 280.038 133.038 280.087 133.221C280.136 133.403 280.254 133.568 280.429 133.668L280.449 133.681L283.395 135.381C283.548 135.47 283.62 135.649 283.579 135.814H283.581C283.472 136.252 283.389 136.702 283.332 137.164C283.277 137.614 283.25 138.073 283.25 138.541C283.25 139.008 283.277 139.468 283.332 139.917C283.389 140.379 283.472 140.829 283.581 141.267C283.625 141.449 283.535 141.632 283.373 141.712L280.429 143.412H280.43C280.255 143.513 280.137 143.677 280.088 143.859C280.039 144.042 280.059 144.244 280.159 144.418L282.261 148.058C282.363 148.233 282.526 148.35 282.708 148.399C282.891 148.448 283.092 148.428 283.266 148.328L283.288 148.316L286.236 146.614C286.39 146.525 286.581 146.554 286.703 146.671C287.363 147.308 288.1 147.865 288.9 148.327C289.684 148.781 290.529 149.143 291.422 149.398C291.595 149.447 291.706 149.605 291.707 149.776V153.201C291.707 153.402 291.79 153.586 291.923 153.72C292.057 153.853 292.24 153.936 292.443 153.936H296.645C296.846 153.936 297.031 153.853 297.165 153.72C297.298 153.587 297.381 153.403 297.381 153.201V149.776C297.381 149.59 297.51 149.435 297.683 149.393C298.569 149.138 299.409 148.778 300.188 148.327C300.988 147.866 301.725 147.308 302.384 146.671C302.519 146.541 302.723 146.527 302.872 146.627L305.821 148.329C305.996 148.43 306.196 148.45 306.38 148.4C306.562 148.351 306.726 148.233 306.826 148.059L306.839 148.039L308.929 144.419C309.03 144.245 309.049 144.044 309 143.861C308.95 143.678 308.833 143.514 308.659 143.414L305.692 141.701C305.538 141.612 305.467 141.434 305.507 141.268C305.615 140.83 305.698 140.379 305.754 139.918C305.809 139.468 305.837 139.009 305.837 138.542C305.837 138.074 305.809 137.615 305.754 137.164C305.698 136.703 305.615 136.252 305.507 135.814C305.462 135.632 305.552 135.448 305.714 135.369L308.658 133.669C308.832 133.569 308.949 133.405 308.999 133.222C309.048 133.039 309.028 132.838 308.928 132.664L308.915 132.643L306.826 129.024C306.724 128.85 306.56 128.732 306.379 128.683C306.196 128.634 305.995 128.654 305.82 128.754H305.821L302.85 130.468C302.693 130.56 302.497 130.529 302.374 130.403C301.716 129.77 300.981 129.215 300.185 128.755C299.401 128.301 298.554 127.94 297.663 127.684C297.49 127.635 297.378 127.477 297.378 127.307V123.88C297.378 123.678 297.295 123.495 297.162 123.361C297.028 123.228 296.844 123.145 296.642 123.145H292.44C292.238 123.145 292.054 123.228 291.92 123.361C291.787 123.494 291.704 123.678 291.704 123.88V127.306C291.707 127.491 291.578 127.647 291.405 127.688Z" fill="#BFCCE8"/>
<path fill-rule="evenodd" clip-rule="evenodd" d="M246.822 130.341C246.822 129.736 246.331 129.245 245.726 129.245C245.121 129.245 244.63 129.736 244.63 130.341V132.918H242.053C241.448 132.918 240.957 133.409 240.957 134.014C240.957 134.619 241.448 135.11 242.053 135.11H244.63V137.687C244.63 138.292 245.12 138.783 245.726 138.783C246.331 138.783 246.822 138.292 246.822 137.687V135.11H249.399C250.004 135.11 250.495 134.619 250.495 134.014C250.495 133.409 250.005 132.918 249.399 132.918H246.822V130.341Z" fill="#BFCCE8"/>
<path fill-rule="evenodd" clip-rule="evenodd" d="M251.289 251.71C251.289 251.105 250.798 250.614 250.193 250.614C249.588 250.614 249.097 251.105 249.097 251.71V254.287H246.52C245.915 254.287 245.424 254.778 245.424 255.384C245.424 255.989 245.914 256.48 246.52 256.48H249.097V259.057C249.097 259.662 249.588 260.154 250.193 260.154C250.798 260.154 251.289 259.663 251.289 259.057V256.48H253.867C254.472 256.48 254.963 255.99 254.963 255.384C254.963 254.779 254.472 254.287 253.867 254.287H251.289V251.71Z" fill="#BFCCE8"/>
<path fill-rule="evenodd" clip-rule="evenodd" d="M155.237 197.355C155.237 196.75 154.746 196.259 154.141 196.259C153.536 196.259 153.045 196.75 153.045 197.355V199.932H150.468C149.863 199.932 149.372 200.423 149.372 201.028C149.372 201.633 149.863 202.124 150.468 202.124H153.045V204.701C153.045 205.306 153.536 205.797 154.141 205.797C154.746 205.797 155.237 205.306 155.237 204.701V202.124H157.814C158.419 202.124 158.91 201.633 158.91 201.028C158.91 200.423 158.419 199.932 157.814 199.932H155.237V197.355Z" fill="#BFCCE8"/>
<path fill-rule="evenodd" clip-rule="evenodd" d="M519.569 190.869C519.569 190.264 519.079 189.773 518.473 189.773C517.868 189.773 517.376 190.264 517.376 190.869V193.446H514.8C514.195 193.446 513.703 193.937 513.703 194.542C513.703 195.147 514.194 195.638 514.8 195.638H517.376V198.215C517.376 198.82 517.867 199.311 518.473 199.311C519.079 199.311 519.569 198.82 519.569 198.215V195.638H522.146C522.751 195.638 523.243 195.147 523.243 194.542C523.243 193.937 522.752 193.446 522.146 193.446H519.569V190.869Z" fill="#BFCCE8"/>
<path fill-rule="evenodd" clip-rule="evenodd" d="M358.811 271.708C358.811 271.708 365.34 273.872 370.49 280.125C373.402 283.661 409.037 351.93 411.326 356.373C413.613 360.818 413.609 372.053 408.21 378.967C406.114 381.653 400.089 389.168 393.504 397.358H372.155C379.907 385.726 390.028 370.515 390.754 369.291C391.94 367.29 392.534 365.353 390.369 361.973C388.202 358.591 359.677 323.813 359.677 323.813C359.677 323.813 345.653 284.608 358.811 271.708Z" fill="#0F1630" stroke="#0E1632" stroke-width="0.216" stroke-miterlimit="22.9256"/>
<path fill-rule="evenodd" clip-rule="evenodd" d="M321.331 266.217C321.331 266.217 357.263 271.324 358.811 271.708C360.36 272.092 362.983 275.706 364.396 278.144C365.81 280.582 367.47 315.655 368.275 325.476C369.08 335.297 365.912 378.111 366.855 389.61C367.011 391.518 367.304 394.204 367.684 397.358H260.202C258.823 384.642 249.238 344.855 248.455 335.295C247.65 325.475 243.578 290.6 244.576 287.964C245.573 285.329 247.573 281.335 249.039 280.704C250.504 280.074 285.546 269.15 285.546 269.15L303.51 271.132L321.331 266.217Z" fill="#CEC9D0"/>
<path fill-rule="evenodd" clip-rule="evenodd" d="M321.331 266.217C321.331 266.217 323.712 266.557 327.27 267.065C327.106 267.935 326.694 268.753 326.04 269.503C312.08 285.503 297.814 286.673 281.435 273.159C280.662 272.521 280.12 271.776 279.818 270.938C283.252 269.865 285.546 269.15 285.546 269.15L303.51 271.132L321.331 266.217Z" fill="white"/>
<path fill-rule="evenodd" clip-rule="evenodd" d="M315.047 231.608L315.354 240.553C315.354 240.553 316.85 258.806 317.078 261.578C317.187 262.917 318.738 264.736 321.332 266.218C309.585 279.682 299.328 280.523 285.546 269.151C287.864 267.267 289.098 265.22 288.988 263.881C288.761 261.11 287.264 242.856 287.264 242.856L286.112 233.98C286.112 233.98 293.326 234.543 300.806 235.556C308.02 233.338 315.047 231.608 315.047 231.608Z" fill="#E8685B"/>
<path fill-rule="evenodd" clip-rule="evenodd" d="M324.301 266.641C324.301 266.641 320.147 284.596 319.838 288.25C319.53 291.904 314.649 328.689 315.158 334.907C315.389 337.736 321.01 366.48 327.129 397.357H376.084C374.884 389.832 373.852 383.342 373.299 379.678C371.31 366.504 369.976 339.123 370.41 322.213C370.845 305.303 366.642 279.927 366.142 277.518C365.641 275.11 360.843 272.1 359.356 271.541L324.301 266.641Z" fill="#0F1630"/>
<path fill-rule="evenodd" clip-rule="evenodd" d="M318.939 295.934C317.466 308.055 314.772 330.208 315.158 334.908C315.158 334.908 338.969 308.983 338.608 306.428C338.247 303.871 328.559 284.8 328.559 284.8C328.559 284.8 324.397 289.585 318.939 295.934Z" fill="#3D4155"/>
<path fill-rule="evenodd" clip-rule="evenodd" d="M323.106 266.47C323.106 266.47 324.16 265.528 324.537 265.496C324.914 265.466 331.374 267.651 331.374 267.651C331.374 267.651 340.798 282.467 340.953 284.359C341.107 286.252 317.81 305.312 317.81 305.312L319.876 287.883C319.876 287.883 323.253 270.845 324.301 266.64L323.106 266.47Z" fill="#545A6C"/>
<path fill-rule="evenodd" clip-rule="evenodd" d="M249.457 280.671C249.457 280.671 243.367 283.869 239.304 290.878C237.006 294.841 212.961 368 211.427 372.757C209.893 377.515 211.726 388.6 218.18 394.542C218.879 395.185 219.941 396.149 221.277 397.358H247.92C240.863 389.791 234.474 382.92 233.829 382.152C232.333 380.371 231.432 378.556 233.018 374.867C234.604 371.179 257.087 332.22 257.087 332.22C257.087 332.22 264.539 291.255 249.457 280.671Z" fill="#0F1630"/>
<path fill-rule="evenodd" clip-rule="evenodd" d="M282.682 270.052C282.682 270.052 289.704 287.091 290.604 290.647C291.502 294.202 302.307 329.701 302.818 335.919C303.045 338.684 302.221 366.716 301.241 397.358H252.813C252.792 394.161 252.768 391.475 252.742 389.559C252.56 376.238 249.418 349.005 246.236 332.391C243.054 315.777 243.069 290.055 243.172 287.597C243.274 285.139 247.518 281.388 248.895 280.595L282.682 270.052Z" fill="#0F1630"/>
<path fill-rule="evenodd" clip-rule="evenodd" d="M292.741 298.082C296.167 309.802 302.431 331.221 302.817 335.92C302.817 335.92 275.102 314.218 275.043 311.637C274.982 309.056 281.436 288.662 281.436 288.662C281.436 288.662 286.321 292.706 292.741 298.082Z" fill="#3D4155"/>
<path fill-rule="evenodd" clip-rule="evenodd" d="M283.831 269.69C283.831 269.69 282.639 268.93 282.263 268.961C281.885 268.991 275.867 272.2 275.867 272.2C275.867 272.2 268.98 288.352 269.137 290.245C269.291 292.138 295.381 307.15 295.381 307.15L290.506 290.29C290.506 290.29 284.401 274.03 282.682 270.052L283.831 269.69Z" fill="#545A6C"/>
<path fill-rule="evenodd" clip-rule="evenodd" d="M270.633 237.058C270.452 237.099 270.276 237.146 270.101 237.2L270.096 237.202C266.876 238.19 264.645 241.296 264.897 244.799C265.192 248.871 268.731 251.934 272.801 251.64C276.873 251.346 279.936 247.808 279.642 243.737C279.473 241.371 278.205 239.345 276.375 238.122C276.761 240.278 276.66 242.999 273.911 243.521L273.604 239.27C273.48 237.548 271.807 236.904 270.633 237.058Z" fill="#E8685B"/>
<path fill-rule="evenodd" clip-rule="evenodd" d="M323.759 232.212C323.944 232.22 324.126 232.234 324.307 232.254L324.313 232.255V232.254C327.658 232.643 330.415 235.296 330.8 238.786C331.247 242.843 328.32 246.496 324.265 246.943C320.207 247.391 316.554 244.464 316.106 240.408C315.845 238.05 316.725 235.829 318.303 234.294C318.314 236.485 318.906 239.142 321.703 239.159L321.235 234.923C321.046 233.209 322.576 232.273 323.759 232.212Z" fill="#E8685B"/>
<path fill-rule="evenodd" clip-rule="evenodd" d="M293.843 197.866H293.84C279.983 199.13 269.675 211.505 270.94 225.366L273.03 248.289C274.295 262.149 286.672 272.455 300.529 271.191L300.532 271.19C314.39 269.926 324.698 257.551 323.433 243.69L321.343 220.768C320.078 206.908 307.701 196.602 293.843 197.866Z" fill="#F4AD85"/>
<path fill-rule="evenodd" clip-rule="evenodd" d="M272.499 214.085C271.161 217.575 270.578 221.41 270.939 225.367L273.029 248.289C274.22 261.343 285.266 271.242 298.125 271.295C283.474 270.168 280.761 252.853 279.642 243.736C278.525 234.616 281.938 232.576 283.296 232.124C284.653 231.671 305.93 228.141 310.637 227.597C315.345 227.054 317.712 229.665 317.712 229.665L319.691 226.782L317.79 220.626C317.79 220.626 319.414 220.68 321.329 220.632C321.17 218.989 320.854 217.397 320.399 215.868C317.679 214.909 314.623 213.753 312.085 212.115C306.473 208.494 279.674 213.021 275.329 213.021C274.678 213.021 273.698 213.412 272.499 214.085Z" fill="#ED9072"/>
<path fill-rule="evenodd" clip-rule="evenodd" d="M319.777 232.931C319.777 232.931 319.93 234.616 320.074 236.18C320.217 237.744 321.828 239.356 323.027 239.247L322.703 235.697C322.703 235.697 322.974 233.033 326.207 232.738C335.086 220.429 332.126 202.446 320.682 194.026C309.237 185.606 286.439 187.079 282.589 188.765C278.739 190.451 275.264 197.561 275.264 197.561C275.264 197.561 271.618 194.86 268.633 196.709C265.648 198.559 256.978 219.246 257.428 224.18C257.878 229.114 268.32 238.018 268.32 238.018C271.552 237.723 272.3 240.294 272.3 240.294L272.624 243.844C273.823 243.735 275.116 241.858 274.975 240.293C274.832 238.729 274.678 237.044 274.678 237.044C274.791 236.981 274.901 236.916 275.011 236.851C278.067 234.865 277.46 228.8 277.46 228.8L274.644 224.86L280.234 217.507L286.666 215.392L301.277 215.952C301.277 215.952 318.507 218.094 316.999 223.108C315.49 228.123 319.777 232.931 319.777 232.931Z" fill="#0E1632"/>
<path fill-rule="evenodd" clip-rule="evenodd" d="M319.777 232.931C319.953 234.861 321.245 243.485 323.493 243.28C330.196 229.16 336.387 214.422 326.4 199.956C325.225 209.265 315.953 214.943 306.667 216.897C311.58 217.967 317.939 219.977 316.998 223.107C315.49 228.123 319.777 232.931 319.777 232.931ZM258.071 219.848C257.591 221.708 257.342 223.233 257.428 224.179C257.775 227.981 270.433 246.341 273.244 250.514C274.707 250.381 274.902 239.505 274.678 237.044C274.791 236.981 274.9 236.917 275.011 236.851C278.067 234.865 277.46 228.8 277.46 228.8L274.644 224.86L280.234 217.506L286.37 215.488C283.281 214.242 282.39 212.932 282.39 212.932C269.707 225.764 262.347 225.063 258.071 219.848Z" fill="#010518"/>
<path fill-rule="evenodd" clip-rule="evenodd" d="M268.527 233.326C268.527 233.326 257.926 210.342 279.252 206.413C279.252 206.413 284.897 195.268 296.205 198.063C307.515 200.857 314.593 200.779 319.665 195.782C319.665 195.782 322.573 201.256 319.042 206.042C329.747 214.349 326.028 224.998 321.648 230.746C319.893 218.834 288.512 232.094 284.41 220.645C284.002 231.585 272.531 228.863 268.527 233.326Z" fill="#0E1632"/>
<path fill-rule="evenodd" clip-rule="evenodd" d="M268.527 233.326C268.527 233.326 266.413 228.739 265.973 223.313C270.095 222.921 275.442 219.961 282.388 212.933C282.388 212.933 285.225 217.103 298.322 217.641C306.277 217.968 316.391 215.024 322.094 208.89C328.91 216.657 325.541 225.638 321.648 230.748C319.893 218.835 288.513 232.096 284.409 220.646C284.002 231.585 272.531 228.863 268.527 233.326Z" fill="#010518"/>
<path fill-rule="evenodd" clip-rule="evenodd" d="M382.824 269.592L379.469 299.079C379.469 299.079 384.541 368.136 387.036 397.357H424.694L425.521 279.826L382.824 269.592Z" fill="#0E1632"/>
<path fill-rule="evenodd" clip-rule="evenodd" d="M402.796 295.168L401.138 305.59L404.438 397.359H450.348C451.114 391.007 451.805 385.576 452.365 381.662C455.813 357.524 456.994 323.978 456.978 316.039C456.962 308.1 447.767 296.317 444.606 295.455C441.445 294.592 402.796 295.168 402.796 295.168Z" fill="#0E1632"/>
<path fill-rule="evenodd" clip-rule="evenodd" d="M387.438 153.48C387.438 153.48 385.871 150.562 384.632 151.109C383.394 151.656 341.824 212.823 340.416 218.087C339.009 223.35 339.587 232.679 347.633 245.627C355.678 258.574 372.893 290.354 373.5 291.039C374.107 291.725 383.515 285.348 384.518 283.565C384.518 283.565 384.93 282.979 384.328 281.789C383.725 280.597 363.26 232.122 361.964 228.643C360.669 225.163 397.129 182.009 398.868 178.558C400.608 175.107 407.31 157 387.438 153.48Z" fill="#171C3A"/>
<path fill-rule="evenodd" clip-rule="evenodd" d="M420.757 135.96L402.654 148.891C402.654 148.891 389.739 199.456 389.689 201.754C389.638 204.052 384.694 231.936 384.694 231.936C384.694 231.936 402.798 239.12 405.383 232.224C407.969 225.328 436.992 175.902 438.429 168.144C439.866 160.385 436.417 141.995 434.693 139.983C432.969 137.971 420.757 135.96 420.757 135.96Z" fill="#C9C4D1"/>
<path fill-rule="evenodd" clip-rule="evenodd" d="M402.536 144.478C402.536 144.478 386.14 150.247 384.633 151.109C383.124 151.971 374.269 184.24 373.551 187.258C372.832 190.276 377.574 245.589 377.574 250.475C377.574 255.361 371.396 316.422 371.252 317.428C371.11 318.434 371.684 319.583 373.12 319.583C374.557 319.583 390.648 289.268 391.941 285.819C393.234 282.371 389.048 230.363 389.048 230.363L399.988 155.935L402.536 144.478Z" fill="#171C3A"/>
<path fill-rule="evenodd" clip-rule="evenodd" d="M451.206 152.655C451.206 152.655 474.705 176.341 475.566 177.778C476.428 179.215 452.004 260.105 451.717 263.84C451.429 267.575 463.787 322.604 464.218 324.04C464.218 324.04 464.289 324.614 463.859 325.476C463.428 326.338 462.422 326.841 461.921 327.201C461.417 327.56 403.947 318.293 399.349 315.419C394.752 312.547 384.838 267.862 384.838 261.828C384.838 255.794 388.314 232.698 388.314 232.698L416.591 184.817C416.591 184.817 437.018 154.179 451.206 152.655Z" fill="#1C2344"/>
<path fill-rule="evenodd" clip-rule="evenodd" d="M447.483 148.932C447.483 148.932 474.705 176.341 475.566 177.778C476.428 179.215 452.004 260.105 451.717 263.84C451.429 267.575 463.787 322.604 464.218 324.04C464.218 324.04 464.289 324.614 463.859 325.476C463.428 326.338 462.422 326.841 461.92 327.201C461.661 327.386 446.374 325.03 430.942 322.306C444.329 303.012 443.63 271.046 442.462 269.102C441.105 266.837 433.952 261.95 435.038 261.587C436.125 261.225 443.457 261.044 444 259.233C444.543 257.422 454.858 200.141 454.858 200.141L461.745 195.498C461.745 195.498 464.823 173.227 462.65 169.968C460.485 166.722 446.147 154.384 446.03 154.284C447.813 153.41 445.829 149.11 447.483 148.932Z" fill="#101937"/>
<path fill-rule="evenodd" clip-rule="evenodd" d="M472.278 174.167C472.278 174.167 475.836 177.004 478.298 180.215C480.76 183.425 511.423 247.522 512.056 253.529C512.69 259.537 510.446 269.656 499.398 282.449C488.35 295.241 464.008 327.077 463.224 327.722C462.44 328.368 453.238 319.76 452.447 317.634C452.447 317.634 452.096 316.922 452.963 315.721C453.83 314.519 484.614 264.958 486.635 261.371C488.654 257.783 456.169 204.221 454.86 200.14C453.548 196.06 449.905 174.592 472.278 174.167Z" fill="#383D5D"/>
<path fill-rule="evenodd" clip-rule="evenodd" d="M437.955 113.452C438.121 122.409 435.798 131.663 436.385 140.634C436.505 142.465 437.381 143.072 439.639 144.539C442.766 149.192 434.214 163.907 428.59 164.783C428.218 164.841 419.057 157.657 412.568 155.989C409.238 155.133 406.496 159.386 406.246 159.205C404.896 158.225 407.798 150.613 406.852 147.725C407.994 147.419 409.01 144.87 409.82 144.126C415.077 139.277 413.362 127.174 409.055 122.602C405.839 119.188 437.955 113.452 437.955 113.452Z" fill="#ED9072"/>
<path fill-rule="evenodd" clip-rule="evenodd" d="M443.88 148.054C443.165 150.08 425.796 173.262 425.796 173.262C425.796 173.262 425.175 174.095 424.267 173.039C423.361 171.984 412.658 157.046 412.658 157.046L436.425 139.337L435.882 135.263C436.229 134.893 444.614 145.972 443.88 148.054Z" fill="white"/>
<path fill-rule="evenodd" clip-rule="evenodd" d="M412.03 140.517C412.037 140.505 412.005 140.482 411.939 140.478C403.815 139.905 402.585 162.923 404.012 167.435C404.022 167.465 408.948 159.901 412.346 156.893C413.884 155.532 409.074 145.131 412.03 140.517Z" fill="white"/>
<path fill-rule="evenodd" clip-rule="evenodd" d="M441.833 141.438C441.833 141.438 411.445 179.107 409.29 182.268C407.136 185.429 390.612 224.365 388.313 232.698C388.313 232.698 413.745 200.946 417.336 198.072C420.927 195.199 434.221 184.135 434.221 184.135C434.221 184.135 434.579 183.416 434.4 182.913C434.221 182.411 430.522 174.041 430.522 174.041C430.522 174.041 441.585 175.693 442.59 175.621C443.596 175.55 448.563 150.867 448.706 150.148C448.852 149.431 441.833 141.438 441.833 141.438Z" fill="#383D5D"/>
<path fill-rule="evenodd" clip-rule="evenodd" d="M412.097 140.462C412.097 140.462 404.059 142.324 402.766 143.043C401.474 143.761 391.272 160.715 390.985 162.152C390.985 162.152 390.841 162.835 391.416 163.122C391.991 163.409 394.11 164.738 394.326 164.954C394.541 165.169 390.769 165.6 390.769 165.6C390.769 165.6 390.339 165.762 390.412 166.426C390.483 167.091 389.05 230.364 389.05 230.364C389.05 230.364 401.591 160.399 403.446 155.794C405.301 151.189 410.294 143.904 410.294 143.904L412.097 140.462Z" fill="#383D5D"/>
<path fill-rule="evenodd" clip-rule="evenodd" d="M398.426 100.419C402.383 100.398 405.61 103.588 405.632 107.545C405.654 111.502 402.463 114.729 398.505 114.75C394.549 114.772 391.322 111.582 391.3 107.625C391.277 103.667 394.469 100.441 398.426 100.419Z" fill="#E8685B"/>
<path fill-rule="evenodd" clip-rule="evenodd" d="M446.251 100.146C450.208 100.124 453.434 103.314 453.456 107.271C453.477 111.228 450.288 114.455 446.33 114.477C442.373 114.499 439.146 111.309 439.125 107.351C439.102 103.394 442.293 100.167 446.251 100.146Z" fill="#E8685B"/>
<path fill-rule="evenodd" clip-rule="evenodd" d="M419.864 63.5864C433.363 63.5044 444.47 75.4814 444.547 90.2044L444.671 114.53C444.745 129.252 433.762 141.363 420.263 141.446C406.764 141.528 395.656 129.55 395.581 114.829L395.457 90.5024C395.382 75.7794 406.364 63.6674 419.864 63.5864Z" fill="#F4AD85"/>
<path fill-rule="evenodd" clip-rule="evenodd" d="M443.592 82.9719C444.201 85.2729 444.533 87.6979 444.547 90.2039L444.671 114.53C444.739 128.067 435.459 139.396 423.468 141.196C422.291 141.319 421.535 141.394 421.372 141.411L421.36 141.412C434.765 140.085 437.603 122.476 437.603 117.166C437.603 111.853 437.603 116.407 437.603 103.377C437.603 90.3469 430.392 88.9869 425.458 88.9869C420.524 88.9869 404.143 88.9869 400.98 88.9869C397.817 88.9869 396.678 91.8969 396.678 91.8969L395.458 90.9699L395.456 90.5029C395.416 82.7069 398.477 75.6439 403.371 70.7109C415.661 73.1119 436.099 77.1949 437.508 78.0759C438.274 78.5519 440.776 80.6039 443.592 82.9719Z" fill="#ED9072"/>
<path fill-rule="evenodd" clip-rule="evenodd" d="M392.111 83.1884L396.52 87.6144C396.52 87.6144 398.633 79.3854 416.411 81.9234C434.19 84.4614 400.018 65.4014 396.148 67.4824C392.278 69.5634 388.906 75.6834 392.111 83.1884Z" fill="#01020E"/>
<path fill-rule="evenodd" clip-rule="evenodd" d="M438.294 83.5862C438.294 83.5862 420.798 85.5042 411.894 79.8512C402.99 74.1972 395.453 71.5762 393.169 74.6472C391.004 77.5612 399.711 85.4292 396.208 98.8112C396.018 99.5372 395.56 111.914 395.293 112.673C395.208 107.83 393.656 95.4562 392.052 92.3592C387.263 83.1142 379.772 76.1652 389.501 62.3022C395.474 53.7942 405.617 49.8072 410.329 54.1122C425.684 68.1392 446.824 49.9142 446.954 73.1582C446.954 73.1582 458.343 76.9922 447.759 100.295C445.363 100.309 444.622 102.122 444.631 103.655L444.725 116.096C436.173 116.098 435.999 93.6772 438.294 83.5862Z" fill="#0E1632"/>
<path fill-rule="evenodd" clip-rule="evenodd" d="M430.758 388.106H480.268C482.661 388.106 484.621 386.148 484.621 383.754V298.637C484.621 296.243 482.662 294.284 480.268 294.284H430.758C428.364 294.284 426.406 296.243 426.406 298.637V383.754C426.406 386.147 428.364 388.106 430.758 388.106Z" fill="#E2E1E7"/>
<path fill-rule="evenodd" clip-rule="evenodd" d="M481.358 388.106H521.407C523.421 388.106 525.069 386.459 525.069 384.444V297.946C525.069 295.932 523.421 294.284 521.407 294.284H481.358C479.344 294.284 477.696 295.934 477.696 297.946V384.444C477.696 386.458 479.344 388.106 481.358 388.106Z" fill="white"/>
<path fill-rule="evenodd" clip-rule="evenodd" d="M416.499 329.916H467.789C467.789 320.725 477.696 319.709 477.696 319.709H426.406C426.406 319.709 416.499 320.724 416.499 329.916Z" fill="white"/>
<path fill-rule="evenodd" clip-rule="evenodd" d="M426.406 373.006H479.486C481.062 373.006 482.351 374.296 482.351 375.871V394.492C482.351 396.067 481.062 397.357 479.486 397.357H426.406C424.83 397.357 423.541 396.068 423.541 394.492V375.871C423.541 374.296 424.83 373.006 426.406 373.006Z" fill="#BB233E"/>
<path fill-rule="evenodd" clip-rule="evenodd" d="M477.816 373.006H489.454H489.456H489.462H489.474C489.737 373.009 492.577 373.116 494.168 376.587C495.84 380.228 495.661 383.868 500.614 383.868C505.305 383.868 498.533 383.868 502.747 383.868C507.701 383.868 507.561 380.142 509.193 376.587C510.825 373.031 513.626 373.009 513.888 373.006H513.899H513.906H513.908H524.949C526.525 373.006 527.814 374.296 527.814 375.871V394.492C527.814 396.067 526.524 397.357 524.949 397.357H477.816C476.24 397.357 474.951 396.068 474.951 394.492V375.871C474.951 374.296 476.24 373.006 477.816 373.006Z" fill="#FF603E"/>
<path fill-rule="evenodd" clip-rule="evenodd" d="M416.499 362.059H467.789C467.789 352.868 477.696 351.853 477.696 351.853H426.406C426.406 351.853 416.499 352.868 416.499 362.059Z" fill="white"/>
<path fill-rule="evenodd" clip-rule="evenodd" d="M533.408 346.735H486.762C486.762 337.544 477.696 336.529 477.696 336.529H524.34C524.34 336.529 533.408 337.543 533.408 346.735Z" fill="#ACABBB"/>
<path fill-rule="evenodd" clip-rule="evenodd" d="M485.119 304.476H520.872C521.739 304.476 522.448 305.185 522.448 306.052C522.448 306.919 521.739 307.628 520.872 307.628H485.119C484.253 307.628 483.544 306.919 483.544 306.052C483.544 305.185 484.253 304.476 485.119 304.476Z" fill="#E2E1E7"/>
<path fill-rule="evenodd" clip-rule="evenodd" d="M485.119 321.843H520.872C521.739 321.843 522.448 322.552 522.448 323.419C522.448 324.285 521.739 324.995 520.872 324.995H485.119C484.253 324.995 483.544 324.286 483.544 323.419C483.544 322.552 484.253 321.843 485.119 321.843Z" fill="#E2E1E7"/>
<path fill-rule="evenodd" clip-rule="evenodd" d="M485.119 358.109H520.872C521.739 358.109 522.448 358.818 522.448 359.685C522.448 360.552 521.739 361.261 520.872 361.261H485.119C484.253 361.261 483.544 360.552 483.544 359.685C483.544 358.818 484.253 358.109 485.119 358.109Z" fill="#E2E1E7"/>
<path fill-rule="evenodd" clip-rule="evenodd" d="M433.985 303.199H468.522C469.389 303.199 470.098 303.908 470.098 304.775C470.098 305.642 469.389 306.351 468.522 306.351H433.985C433.119 306.351 432.409 305.642 432.409 304.775C432.409 303.908 433.118 303.199 433.985 303.199Z" fill="#ACABBB"/>
<path fill-rule="evenodd" clip-rule="evenodd" d="M433.985 342.315H468.522C469.389 342.315 470.098 343.024 470.098 343.891V343.892C470.098 344.758 469.389 345.467 468.522 345.467H433.985C433.119 345.467 432.409 344.758 432.409 343.892V343.891C432.409 343.024 433.118 342.315 433.985 342.315Z" fill="#ACABBB"/>
<path fill-rule="evenodd" clip-rule="evenodd" d="M433.985 367.344H468.522C469.389 367.344 470.098 368.053 470.098 368.92C470.098 369.787 469.389 370.496 468.522 370.496H433.985C433.119 370.496 432.409 369.787 432.409 368.92C432.409 368.053 433.118 367.344 433.985 367.344Z" fill="#ACABBB"/>
<path fill-rule="evenodd" clip-rule="evenodd" d="M405.388 391.758H435.35C436.799 391.758 437.984 390.573 437.984 389.124V337.613C437.984 336.165 436.799 334.979 435.35 334.979H405.388C403.94 334.979 402.754 336.165 402.754 337.613V389.124C402.754 390.574 403.939 391.758 405.388 391.758Z" fill="#E2E1E7"/>
<path fill-rule="evenodd" clip-rule="evenodd" d="M436.01 391.758H460.247C461.466 391.758 462.462 390.761 462.462 389.542V337.195C462.462 335.977 461.465 334.979 460.247 334.979H436.01C434.791 334.979 433.794 335.977 433.794 337.195V389.542C433.794 390.761 434.791 391.758 436.01 391.758Z" fill="white"/>
<path fill-rule="evenodd" clip-rule="evenodd" d="M396.759 356.543H427.798C427.798 350.981 433.794 350.367 433.794 350.367H402.754C402.754 350.367 396.759 350.981 396.759 356.543Z" fill="white"/>
<path fill-rule="evenodd" clip-rule="evenodd" d="M402.754 382.622H434.877C435.831 382.622 436.611 383.401 436.611 384.355V395.624C436.611 396.577 435.831 397.358 434.877 397.358H402.754C401.801 397.358 401.021 396.578 401.021 395.624V384.355C401.02 383.401 401.801 382.622 402.754 382.622Z" fill="#BB233E"/>
<path fill-rule="evenodd" clip-rule="evenodd" d="M433.866 382.622H440.909H440.91H440.914H440.921C441.079 382.623 442.799 382.688 443.763 384.789C444.774 386.992 444.666 389.195 447.663 389.195C450.502 389.195 446.404 389.195 448.954 389.195C451.951 389.195 451.868 386.94 452.855 384.789C453.841 382.637 455.538 382.623 455.696 382.622H455.703H455.707H455.708H462.391C463.344 382.622 464.124 383.401 464.124 384.355V395.624C464.124 396.577 463.344 397.358 462.391 397.358H433.867C432.914 397.358 432.133 396.578 432.133 395.624V384.355C432.132 383.401 432.913 382.622 433.866 382.622Z" fill="#FF603E"/>
<path fill-rule="evenodd" clip-rule="evenodd" d="M396.759 375.996H427.798C427.798 370.433 433.794 369.82 433.794 369.82H402.754C402.754 369.82 396.759 370.433 396.759 375.996Z" fill="white"/>
<path fill-rule="evenodd" clip-rule="evenodd" d="M467.509 366.722H439.28C439.28 361.159 433.794 360.546 433.794 360.546H462.023C462.023 360.546 467.509 361.16 467.509 366.722Z" fill="#ACABBB"/>
<path fill-rule="evenodd" clip-rule="evenodd" d="M438.286 341.148H459.922C460.447 341.148 460.876 341.578 460.876 342.102C460.876 342.626 460.447 343.056 459.922 343.056H438.286C437.762 343.056 437.332 342.626 437.332 342.102C437.332 341.578 437.762 341.148 438.286 341.148Z" fill="#E2E1E7"/>
<path fill-rule="evenodd" clip-rule="evenodd" d="M438.286 351.659H459.922C460.447 351.659 460.876 352.088 460.876 352.612C460.876 353.136 460.447 353.566 459.922 353.566H438.286C437.762 353.566 437.332 353.137 437.332 352.612C437.332 352.086 437.762 351.659 438.286 351.659Z" fill="#E2E1E7"/>
<path fill-rule="evenodd" clip-rule="evenodd" d="M438.286 373.605H459.922C460.447 373.605 460.876 374.035 460.876 374.559C460.876 375.083 460.447 375.513 459.922 375.513H438.286C437.762 375.513 437.332 375.083 437.332 374.559C437.332 374.035 437.762 373.605 438.286 373.605Z" fill="#E2E1E7"/>
<path fill-rule="evenodd" clip-rule="evenodd" d="M407.342 340.375H428.242C428.766 340.375 429.195 340.805 429.195 341.329C429.195 341.852 428.766 342.283 428.242 342.283H407.342C406.817 342.283 406.388 341.854 406.388 341.33C406.388 340.805 406.816 340.375 407.342 340.375Z" fill="#ACABBB"/>
<path fill-rule="evenodd" clip-rule="evenodd" d="M407.342 364.047H428.242C428.766 364.047 429.195 364.477 429.195 365V365.001C429.195 365.525 428.766 365.955 428.242 365.955H407.342C406.817 365.955 406.388 365.525 406.388 365.001V365C406.388 364.477 406.816 364.047 407.342 364.047Z" fill="#ACABBB"/>
<path fill-rule="evenodd" clip-rule="evenodd" d="M407.342 379.194H428.242C428.766 379.194 429.195 379.624 429.195 380.148C429.195 380.672 428.766 381.102 428.242 381.102H407.342C406.817 381.102 406.388 380.672 406.388 380.148C406.388 379.624 406.816 379.194 407.342 379.194Z" fill="#ACABBB"/>
<path fill-rule="evenodd" clip-rule="evenodd" d="M69.422 257.828L110.401 258.022C110.941 258.022 111.379 258.46 111.379 259L111.369 263.287C111.369 263.827 110.931 264.266 110.391 264.266L69.412 264.072C68.872 264.073 68.434 263.634 68.434 263.095L68.444 258.808C68.444 258.266 68.882 257.829 69.422 257.828ZM109.421 259.975L70.398 259.787L70.393 262.118L109.416 262.306L109.421 259.975Z" fill="#0E1632"/>
<path fill-rule="evenodd" clip-rule="evenodd" d="M15.583 319.054L69.724 257.361C70.079 256.955 70.697 256.913 71.104 257.267L74.327 260.095C74.734 260.449 74.775 261.068 74.42 261.475L20.28 323.169C19.925 323.575 19.307 323.617 18.9 323.262L15.677 320.434C15.27 320.08 15.229 319.461 15.583 319.054ZM70.55 259.384L17.7 319.608L19.452 321.146L72.302 260.922L70.55 259.384Z" fill="#0E1632"/>
<path fill-rule="evenodd" clip-rule="evenodd" d="M69.9711 255.617C72.9601 255.237 75.6921 257.352 76.0711 260.343C76.4511 263.332 74.3351 266.064 71.3451 266.443C68.3561 266.823 65.6241 264.707 65.2451 261.718C64.8651 258.727 66.9811 255.996 69.9711 255.617Z" fill="#383D5D"/>
<path fill-rule="evenodd" clip-rule="evenodd" d="M15.549 319.346L53.617 392.066C53.866 392.545 54.457 392.731 54.936 392.482L58.734 390.494C59.213 390.245 59.399 389.654 59.15 389.175L21.082 316.456C20.833 315.977 20.242 315.791 19.763 316.04L15.965 318.028C15.486 318.277 15.299 318.868 15.549 319.346ZM54.897 390.294L17.736 319.308L19.801 318.227L56.962 389.213L54.897 390.294Z" fill="#0E1632"/>
<path fill-rule="evenodd" clip-rule="evenodd" d="M53.445 393.82C56.26 394.893 59.414 393.481 60.488 390.666C61.561 387.85 60.149 384.697 57.333 383.623C54.518 382.55 51.364 383.962 50.291 386.777C49.217 389.593 50.629 392.747 53.445 393.82Z" fill="#383D5D"/>
<path fill-rule="evenodd" clip-rule="evenodd" d="M18.658 314.087C21.647 313.707 24.378 315.823 24.758 318.812C25.137 321.801 23.022 324.533 20.032 324.913C17.043 325.292 14.312 323.177 13.932 320.186C13.553 317.198 15.669 314.467 18.658 314.087Z" fill="#383D5D"/>
<path fill-rule="evenodd" clip-rule="evenodd" d="M6.37003 402.982H82.424C86.215 402.982 89.316 399.88 89.316 396.09V396.089C89.316 392.299 86.215 389.197 82.424 389.197H6.37003C2.57903 389.197 -0.521973 392.299 -0.521973 396.089V396.09C-0.521973 399.88 2.57903 402.982 6.37003 402.982Z" fill="#383D5D"/>
<path fill-rule="evenodd" clip-rule="evenodd" d="M33.466 402.982H109.52C113.31 402.982 116.412 399.88 116.412 396.09V396.089C116.412 392.299 113.31 389.197 109.52 389.197H33.466C29.675 389.197 26.574 392.299 26.574 396.089V396.09C26.574 399.88 29.675 402.982 33.466 402.982Z" fill="#0E1632"/>
<path fill-rule="evenodd" clip-rule="evenodd" d="M101.583 271.817H121.628C127.443 271.817 132.201 267.059 132.201 261.244H91.009C91.009 267.059 95.767 271.817 101.583 271.817Z" fill="white"/>
<path fill-rule="evenodd" clip-rule="evenodd" d="M101.962 269.708H114.006C117.5 269.708 120.359 266.849 120.359 263.354H95.609C95.609 266.848 98.468 269.708 101.962 269.708Z" fill="#DFF0F2"/>
<path fill-rule="evenodd" clip-rule="evenodd" d="M94.841 256.392H128.369C132.817 256.392 136.456 260.031 136.456 264.479H86.754C86.754 260.031 90.393 256.392 94.841 256.392Z" fill="#383D5D"/>
<path fill-rule="evenodd" clip-rule="evenodd" d="M94.841 256.392H110.172C114.62 256.392 118.259 260.031 118.259 264.479H86.754C86.754 260.031 90.393 256.392 94.841 256.392Z" fill="#01020E"/>
<path fill-rule="evenodd" clip-rule="evenodd" d="M499.521 105.965C499.285 106.297 498.823 106.375 498.49 106.138C498.157 105.902 498.08 105.44 498.316 105.107C501.213 101.059 505.048 97.728 509.504 95.436C513.799 93.226 518.669 91.978 523.826 91.978C532.481 91.978 540.318 95.487 545.991 101.159C551.663 106.831 555.172 114.668 555.172 123.324C555.172 131.98 551.663 139.816 545.991 145.488C540.318 151.16 532.481 154.669 523.826 154.669C516.555 154.669 509.858 152.19 504.538 148.03C499.104 143.782 495.107 137.781 493.398 130.878C493.301 130.482 493.544 130.081 493.94 129.983C494.336 129.886 494.737 130.129 494.836 130.525C496.463 137.102 500.272 142.819 505.447 146.866C510.512 150.826 516.892 153.186 523.826 153.186C532.072 153.186 539.538 149.844 544.941 144.439C550.345 139.036 553.688 131.569 553.688 123.323C553.688 115.076 550.345 107.611 544.941 102.207C539.538 96.803 532.072 93.46 523.826 93.46C518.908 93.46 514.268 94.648 510.181 96.751C505.934 98.937 502.278 102.11 499.521 105.965Z" fill="white"/>
<path fill-rule="evenodd" clip-rule="evenodd" d="M538.227 109.56C537.397 110.28 535.149 112.591 533.731 117.489C534.961 118.309 538.352 120.902 536.761 123.657L530.145 135.11C528.537 137.788 524.64 136.167 523.322 135.517C519.783 139.201 518.909 142.307 518.704 143.375C520.988 144.569 523.055 144.865 524.775 144.657C527.22 144.363 528.953 143.075 529.606 141.942L542.455 119.689C543.096 118.547 543.332 116.418 542.373 114.172C541.691 112.58 540.403 110.94 538.227 109.56ZM532.372 117.608C534.137 111.075 537.439 108.533 537.781 108.284C537.982 108.124 538.269 108.095 538.505 108.234C541.171 109.817 542.731 111.769 543.545 113.674C544.676 116.32 544.357 118.899 543.563 120.314L530.709 142.579C529.896 143.985 527.808 145.577 524.925 145.924C522.876 146.171 520.413 145.799 517.718 144.292C517.495 144.178 517.351 143.938 517.372 143.673C517.372 143.661 517.711 139.349 522.726 134.304C522.924 134.085 523.254 134.026 523.518 134.181C523.531 134.187 527.764 136.632 529.063 134.444L535.659 123.017C536.89 120.888 533.035 118.54 532.695 118.338C532.435 118.204 532.294 117.902 532.372 117.608Z" fill="white"/>
<path d="M499.262 128.117V126.793L500.953 125.15C505.024 121.275 506.863 119.216 506.888 116.813C506.888 115.195 506.103 113.699 503.725 113.699C502.278 113.699 501.077 114.435 500.341 115.048L499.654 113.528C500.758 112.596 502.327 111.909 504.166 111.909C507.599 111.909 509.046 114.263 509.046 116.544C509.046 119.486 506.912 121.865 503.553 125.102L502.278 126.279V126.328H509.438V128.118L499.262 128.117Z" fill="white"/>
<path d="M518.513 128.117V123.777H511.108V122.355L518.218 112.179H520.548V122.085H522.779V123.777H520.548V128.117H518.513ZM518.513 122.085V116.764C518.513 115.93 518.537 115.097 518.586 114.263H518.513C518.022 115.195 517.63 115.882 517.189 116.617L513.29 122.036V122.085H518.513Z" fill="white"/>
<path fill-rule="evenodd" clip-rule="evenodd" d="M325.196 71.7031H367.897C371.557 71.7031 374.551 74.6981 374.551 78.3571V96.0541V98.0841V115.552C374.551 115.859 374.376 116.12 374.093 116.238C373.81 116.356 373.5 116.294 373.283 116.077L361.943 104.738H325.195C321.536 104.738 318.542 101.743 318.542 98.0841V78.3571C318.543 74.6971 321.537 71.7031 325.196 71.7031Z" fill="#BFCCE8"/>
<path fill-rule="evenodd" clip-rule="evenodd" d="M320.15 67.3779H362.852C364.924 67.3779 366.808 68.2249 368.173 69.5899C369.537 70.9549 370.385 72.8389 370.385 74.9109V112.105C370.385 112.433 370.287 112.743 370.111 113.007C369.937 113.269 369.688 113.477 369.384 113.603H369.381C369.074 113.729 368.753 113.76 368.449 113.699C368.138 113.637 367.849 113.487 367.615 113.253L356.534 102.171H320.15C318.078 102.171 316.195 101.323 314.829 99.9589C313.465 98.5939 312.618 96.7099 312.618 94.6369V74.9109C312.618 72.8379 313.465 70.9539 314.829 69.5899C316.195 68.2249 318.078 67.3779 320.15 67.3779ZM362.852 69.1359H320.15C318.564 69.1359 317.12 69.7859 316.073 70.8329C315.026 71.8799 314.376 73.3239 314.376 74.9109V94.6369C314.376 96.2239 315.026 97.6679 316.073 98.7149C317.12 99.7619 318.564 100.412 320.15 100.412H357.263L368.626 111.777V74.9109C368.626 73.3239 367.977 71.8799 366.93 70.8329C365.883 69.7859 364.439 69.1359 362.852 69.1359Z" fill="white"/>
<path fill-rule="evenodd" clip-rule="evenodd" d="M319.796 74.732C319.53 74.732 319.314 74.517 319.314 74.251C319.314 73.986 319.53 73.77 319.796 73.77H363.207C363.473 73.77 363.688 73.986 363.688 74.251C363.688 74.517 363.472 74.732 363.207 74.732H319.796Z" fill="white"/>
<path fill-rule="evenodd" clip-rule="evenodd" d="M319.796 79.4239C319.53 79.4239 319.314 79.2079 319.314 78.9429C319.314 78.6779 319.53 78.4629 319.796 78.4629H324.395C324.661 78.4629 324.875 78.6779 324.875 78.9429C324.875 79.2089 324.66 79.4239 324.395 79.4239H319.796ZM330.517 79.4239C330.251 79.4239 330.037 79.2079 330.037 78.9429C330.037 78.6779 330.252 78.4629 330.517 78.4629H363.207C363.473 78.4629 363.688 78.6779 363.688 78.9429C363.688 79.2089 363.472 79.4239 363.207 79.4239H330.517Z" fill="white"/>
<path fill-rule="evenodd" clip-rule="evenodd" d="M319.796 84.1148C319.53 84.1148 319.314 83.8998 319.314 83.6338C319.314 83.3688 319.53 83.1538 319.796 83.1538H363.207C363.473 83.1538 363.688 83.3688 363.688 83.6338C363.688 83.8998 363.472 84.1148 363.207 84.1148H319.796Z" fill="white"/>
<path fill-rule="evenodd" clip-rule="evenodd" d="M331.869 90.4752C331.603 90.4752 331.388 90.2592 331.388 89.9942C331.388 89.7292 331.604 89.5142 331.869 89.5142H363.207C363.473 89.5142 363.688 89.7292 363.688 89.9942C363.688 90.2602 363.472 90.4752 363.207 90.4752H331.869Z" fill="white"/>
<path fill-rule="evenodd" clip-rule="evenodd" d="M345.862 95.564C345.597 95.564 345.382 95.348 345.382 95.083C345.382 94.818 345.598 94.603 345.862 94.603H363.207C363.473 94.603 363.688 94.818 363.688 95.083C363.688 95.349 363.472 95.564 363.207 95.564H345.862Z" fill="white"/>
<path fill-rule="evenodd" clip-rule="evenodd" d="M335.924 95.564C335.658 95.564 335.443 95.348 335.443 95.083C335.443 94.818 335.659 94.603 335.924 94.603H342.125C342.391 94.603 342.606 94.818 342.606 95.083C342.606 95.349 342.39 95.564 342.125 95.564H335.924Z" fill="white"/>
<path fill-rule="evenodd" clip-rule="evenodd" d="M143.811 384.99H106.68C105.153 384.99 103.765 385.614 102.76 386.62C101.755 387.626 101.131 389.014 101.131 390.54C101.131 392.067 101.755 393.456 102.76 394.46C103.766 395.466 105.154 396.09 106.68 396.09H143.811C145.338 396.09 146.726 395.466 147.731 394.46C148.737 393.456 149.361 392.067 149.361 390.54C149.361 389.014 148.736 387.626 147.731 386.62C146.727 385.614 145.339 384.99 143.811 384.99Z" fill="#0076BD"/>
<path fill-rule="evenodd" clip-rule="evenodd" d="M60.755 385.637H108.239C110.935 385.637 113.142 387.843 113.142 390.539C113.142 393.236 110.935 395.443 108.239 395.443H60.755V385.637Z" fill="white"/>
<path fill-rule="evenodd" clip-rule="evenodd" d="M60.755 384.99C60.398 384.99 60.109 385.28 60.109 385.637C60.109 385.993 60.398 386.283 60.755 386.283H108.239C109.409 386.283 110.473 386.762 111.245 387.534C112.016 388.307 112.496 389.37 112.496 390.54C112.496 391.711 112.017 392.775 111.245 393.547C110.474 394.319 109.409 394.797 108.239 394.797H60.755C60.398 394.797 60.109 395.087 60.109 395.445C60.109 395.801 60.398 396.09 60.755 396.09H108.239C109.766 396.09 111.154 395.466 112.16 394.46C113.165 393.456 113.79 392.067 113.79 390.54C113.79 389.014 113.165 387.626 112.16 386.62C111.154 385.614 109.766 384.99 108.239 384.99H60.755Z" fill="#004A82"/>
<path fill-rule="evenodd" clip-rule="evenodd" d="M142.102 390.54C142.102 389.014 141.478 387.626 140.472 386.62C139.467 385.614 138.078 384.99 136.552 384.99H141.379C142.906 384.99 144.294 385.614 145.299 386.62C146.305 387.626 146.929 389.014 146.929 390.54C146.929 392.067 146.305 393.456 145.299 394.46C144.294 395.466 142.906 396.09 141.379 396.09H136.552C138.078 396.09 139.467 395.466 140.472 394.46C141.477 393.456 142.102 392.067 142.102 390.54Z" fill="#004A82"/>
<path fill-rule="evenodd" clip-rule="evenodd" d="M135.107 390.54C135.107 389.014 134.483 387.626 133.477 386.62C132.472 385.614 131.084 384.99 129.557 384.99H134.385C135.912 384.99 137.3 385.614 138.306 386.62C139.311 387.626 139.936 389.014 139.936 390.54C139.936 392.067 139.312 393.456 138.306 394.46C137.301 395.466 135.912 396.09 134.385 396.09H129.557C131.084 396.09 132.472 395.466 133.477 394.46C134.483 393.456 135.107 392.067 135.107 390.54Z" fill="#004A82"/>
<path fill-rule="evenodd" clip-rule="evenodd" d="M70.518 375.27H103.032C104.369 375.27 105.584 375.817 106.465 376.698C107.345 377.578 107.892 378.794 107.892 380.131C107.892 381.468 107.346 382.683 106.465 383.564C105.584 384.445 104.369 384.991 103.032 384.991H70.518C69.181 384.991 67.966 384.445 67.085 383.564C66.204 382.683 65.657 381.468 65.657 380.131C65.657 378.794 66.204 377.578 67.085 376.698C67.966 375.817 69.181 375.27 70.518 375.27Z" fill="#E74D91"/>
<path fill-rule="evenodd" clip-rule="evenodd" d="M143.247 375.836H101.667C99.306 375.836 97.373 377.768 97.373 380.13C97.373 382.492 99.306 384.424 101.667 384.424H143.247V375.836Z" fill="white"/>
<path fill-rule="evenodd" clip-rule="evenodd" d="M143.247 375.27C143.56 375.27 143.813 375.524 143.813 375.836C143.813 376.148 143.56 376.402 143.247 376.402H101.667C100.643 376.402 99.71 376.821 99.035 377.497C98.359 378.173 97.939 379.105 97.939 380.13C97.939 381.154 98.359 382.087 99.035 382.763C99.71 383.438 100.642 383.858 101.667 383.858H143.247C143.56 383.858 143.813 384.112 143.813 384.424C143.813 384.736 143.56 384.989 143.247 384.989H101.667C100.33 384.989 99.115 384.443 98.234 383.562C97.354 382.681 96.807 381.466 96.807 380.129C96.807 378.792 97.354 377.576 98.234 376.696C99.114 375.815 100.33 375.268 101.667 375.268H143.247V375.27Z" fill="#B92F6D"/>
<path fill-rule="evenodd" clip-rule="evenodd" d="M72.016 380.13C72.016 378.793 72.562 377.577 73.443 376.697C74.323 375.816 75.539 375.269 76.876 375.269H72.648C71.312 375.269 70.096 375.816 69.215 376.697C68.335 377.577 67.788 378.793 67.788 380.13C67.788 381.467 68.335 382.682 69.215 383.563C70.095 384.444 71.311 384.99 72.648 384.99H76.876C75.539 384.99 74.324 384.444 73.443 383.563C72.562 382.682 72.016 381.467 72.016 380.13Z" fill="#B92F6D"/>
<path fill-rule="evenodd" clip-rule="evenodd" d="M78.14 380.13C78.14 378.793 78.687 377.577 79.567 376.697C80.447 375.816 81.663 375.269 83 375.269H78.772C77.435 375.269 76.22 375.816 75.339 376.697C74.459 377.577 73.912 378.793 73.912 380.13C73.912 381.467 74.459 382.682 75.339 383.563C76.219 384.444 77.435 384.99 78.772 384.99H83C81.663 384.99 80.447 384.444 79.567 383.563C78.687 382.682 78.14 381.467 78.14 380.13Z" fill="#B92F6D"/>
<path fill-rule="evenodd" clip-rule="evenodd" d="M364.108 397.358H204.416C201.626 397.358 199.208 395.076 199.041 392.286V392.285C198.873 389.496 201.02 387.215 203.809 387.215H363.501C366.29 387.215 368.709 389.496 368.876 392.285V392.286C369.043 395.076 366.897 397.358 364.108 397.358Z" fill="#A8A6B5"/>
<path fill-rule="evenodd" clip-rule="evenodd" d="M364.108 397.358H204.416C202.609 397.358 200.958 396.4 199.973 394.966C200.786 393.533 202.323 392.575 204.13 392.575H363.821C365.628 392.575 367.279 393.533 368.264 394.966C367.451 396.4 365.915 397.358 364.108 397.358Z" fill="#96929F"/>
<path fill-rule="evenodd" clip-rule="evenodd" d="M367.443 387.214H239.716C236.067 387.214 233.27 384.228 233.501 380.578L238.73 297.845C238.96 294.196 242.135 291.21 245.784 291.21H373.511C377.161 291.21 379.958 294.195 379.727 297.845L374.498 380.578C374.268 384.228 371.094 387.214 367.443 387.214Z" fill="#96929F"/>
<path fill-rule="evenodd" clip-rule="evenodd" d="M367.444 387.214H243.484C239.834 387.214 237.038 384.228 237.269 380.578L242.498 297.845C242.728 294.196 245.903 291.21 249.552 291.21H373.512C377.161 291.21 379.957 294.195 379.727 297.845L374.498 380.578C374.268 384.228 371.094 387.214 367.444 387.214Z" fill="white"/>
<path fill-rule="evenodd" clip-rule="evenodd" d="M360.689 387.214H347.933L242.19 302.697L242.497 297.845C242.589 296.396 243.145 295.051 244.011 293.957L360.689 387.214ZM258.333 291.212L373.683 383.406C374.144 382.547 374.434 381.589 374.497 380.579L375.311 367.714L279.593 291.212H258.333Z" fill="#F0EEF0"/>
<path fill-rule="evenodd" clip-rule="evenodd" d="M233.438 397.358H204.417C201.627 397.358 199.209 395.076 199.042 392.286V392.285C198.874 389.496 201.021 387.215 203.81 387.215H232.832C235.622 387.215 238.04 389.496 238.207 392.285V392.286C238.373 395.076 236.228 397.358 233.438 397.358Z" fill="white"/>
<path fill-rule="evenodd" clip-rule="evenodd" d="M366.188 389.75H233.305C231.91 389.75 230.702 388.609 230.618 387.215L230.617 387.214C230.534 385.818 231.606 384.678 233.001 384.678H365.885C367.28 384.678 368.489 385.819 368.573 387.214V387.215C368.655 388.609 367.583 389.75 366.188 389.75Z" fill="#D2CED6"/>
<path fill-rule="evenodd" clip-rule="evenodd" d="M214.96 284.703C213.98 279.828 214.225 277.099 215.163 272.473L194.222 270.705L223.368 257.932C223.368 257.932 229.553 250.342 232.469 242.888C235.385 235.433 227.478 216.477 224.506 211.773C221.534 207.07 215.361 207.773 211.295 210.318C211.295 210.318 205.19 201.118 197.902 200.503C190.614 199.888 167.449 202.023 160.72 219.023C153.991 236.022 164.817 253.015 153.98 270.503C153.98 270.503 153.025 272.715 154.432 274.578C155.839 276.442 172.926 296.355 211.868 288.332C211.868 288.332 214.972 287.612 214.96 284.703Z" fill="#0E1632"/>
<path fill-rule="evenodd" clip-rule="evenodd" d="M187.516 289.915C189.661 266.498 191.173 246.145 191.173 246.145L189.186 239.546C189.186 239.546 171.254 254.039 158.523 238.791C159.127 249.252 160.623 259.785 153.981 270.504C153.981 270.504 153.026 272.716 154.433 274.579L154.49 274.654L154.51 274.679L154.56 274.742L154.611 274.806L154.643 274.846L154.735 274.956L154.74 274.962L154.851 275.093L154.882 275.13L154.974 275.235L155.052 275.325L155.112 275.391L155.247 275.541L155.264 275.559L155.429 275.738L155.466 275.778L155.609 275.929L155.709 276.034L155.802 276.13L155.869 276.198L156.009 276.341L156.229 276.563L156.381 276.711L156.497 276.825C160.223 280.43 168.901 287.096 183.525 289.41L183.568 289.416C184.836 289.616 186.149 289.783 187.507 289.913L187.516 289.915Z" fill="#010518"/>
<path fill-rule="evenodd" clip-rule="evenodd" d="M214.96 284.703C213.628 278.079 214.56 275.416 216.416 266.566L183.092 261.322L168.53 264.144C168.53 264.144 167.258 272.303 163.451 282.175C172.317 287.663 187.979 293.254 211.867 288.332C211.867 288.332 214.972 287.612 214.96 284.703Z" fill="#010518"/>
<path fill-rule="evenodd" clip-rule="evenodd" d="M170.749 286.142C179.97 289.035 192.576 292.493 203.444 297.836C204.195 298.206 202.665 301.099 203.362 301.485C204.424 302.073 206.191 303.443 208.131 305.362C213.208 310.383 223.538 349.672 222.616 353.586C221.132 359.883 208.081 377.182 208.081 377.182C205.489 382.188 202.275 389.479 199.12 397.358H134.297C138.812 382.681 140.493 372.739 140.612 363.778H140.613C144.074 333.315 127.696 326.688 127.696 326.688L144.659 286.769C151.259 284.432 164.42 285.311 164.42 285.311C167.898 285.308 167.633 285.165 170.749 286.142Z" fill="url(#paint32_linear_148_2610)"/>
<path fill-rule="evenodd" clip-rule="evenodd" d="M199.121 397.358H189.972C191.677 392.795 199.608 371.218 201.304 366.613C193.594 365.271 182.98 363.431 181.109 362.986C179.237 362.54 172.071 366.635 172.071 366.635L172.867 361.978L165.174 369.726L178.329 345.161C178.329 345.161 199.795 350.009 204.356 350.84C208.916 351.67 206.135 351.038 206.983 350.971C209.519 343.836 205.366 341.84 205.86 338.387C206.353 334.934 206.499 301.444 206.499 301.444C209.274 302.882 210.526 306.005 212.096 310.934C213.128 314.177 218.61 335.492 220.878 348.099C221.418 351.098 221.845 353.342 222.115 355.132C217.028 368.098 205.61 381.154 199.121 397.358Z" fill="#FF603E"/>
<path fill-rule="evenodd" clip-rule="evenodd" d="M186.757 249.343L183.512 259.093C183.512 259.093 178.603 282.101 177.468 285.085C177.073 286.12 175.776 286.437 173.779 286.389C176.651 290.502 182.229 296.777 190.292 298.305C195.441 299.281 199.041 298.32 201.485 296.878C199.764 295.969 198.117 294.889 198.124 294.002C198.194 286.149 199.543 272.33 203.799 269.774C208.673 266.848 186.757 249.343 186.757 249.343Z" fill="#E8685B"/>
<path fill-rule="evenodd" clip-rule="evenodd" d="M175.395 286.323C174.239 286.476 172.663 286.367 170.749 286.142C172.732 289.001 175.934 292.213 181.069 295.467C193.783 303.523 199.905 299.133 201.842 297.063C200.653 296.454 199.446 295.75 198.743 295.074C186.877 300.872 175.395 286.323 175.395 286.323Z" fill="white"/>
<path fill-rule="evenodd" clip-rule="evenodd" d="M202.929 297.587C202.929 297.587 207.999 348.612 207.384 352.922C206.768 357.233 198.708 378.465 191.642 397.358H203.791C206.191 392.734 208.025 389.124 208.358 388.254C208.574 387.691 209.414 386.06 210.568 383.922C212.645 380.077 215.746 374.598 218.083 370.761C225.531 358.532 225.512 361.388 222.934 347.064C220.665 334.458 213.702 311.13 212.669 307.887C211.1 302.957 204.245 297.228 202.929 297.587Z" fill="#1C2344"/>
<path fill-rule="evenodd" clip-rule="evenodd" d="M202.216 368.606C200.546 373.274 198.604 378.59 196.589 384.047C200.283 384.366 203.233 384.737 204.278 385.147C207.972 386.598 208.358 388.254 208.358 388.254C208.574 387.691 209.414 386.06 210.568 383.922C212.645 380.077 215.745 374.598 218.083 370.761C220.323 367.082 221.887 364.77 222.91 362.944C221.476 364.202 219.191 366.101 218.078 366.438C216.732 366.845 206.379 368.108 202.216 368.606Z" fill="#0E1632"/>
<path fill-rule="evenodd" clip-rule="evenodd" d="M168.84 285.056C168.84 285.056 178.143 330.124 179.418 343.225C180.693 356.325 176.595 365.702 171.986 375.545C170.432 378.862 165.45 387.33 159.315 397.358H130.671L133.735 326.563L125.521 324.66C126.009 321.103 126.408 318.158 126.681 316.095L142.854 287.501C142.854 287.501 148.949 282.555 168.84 285.056Z" fill="#1C2344"/>
<path fill-rule="evenodd" clip-rule="evenodd" d="M151.425 306.749C146.856 325.102 150.029 332.713 150.029 332.713L152.477 321.293C152.477 321.293 154.792 338.149 157.368 340.299C158.647 341.366 173.873 344.286 179.579 345.35C179.973 352.501 178.749 358.546 176.774 364.232C172.679 364.653 148.041 361.182 146.864 369.142C146.277 373.112 146.409 360.339 146.409 360.339L144.951 397.359H130.671L133.735 326.564L125.521 324.661L125.544 324.494L125.567 324.33L125.589 324.165L125.611 324.001L125.634 323.839L125.656 323.677L125.678 323.517L125.7 323.357L125.722 323.198L125.743 323.041L125.764 322.884L125.785 322.728L125.806 322.573L125.827 322.42V322.419L125.848 322.267L125.868 322.115L125.889 321.965L125.909 321.815L125.93 321.666L125.95 321.519L125.97 321.372L125.989 321.225L126.009 321.08L126.029 320.935L126.048 320.792L126.068 320.65L126.087 320.509V320.508L126.106 320.368L126.125 320.229L126.144 320.092L126.162 319.955L126.18 319.819L126.198 319.685V319.684L126.216 319.551L126.234 319.419L126.252 319.288V319.287L126.27 319.158L126.288 319.029L126.305 318.901L126.322 318.774L126.339 318.649L126.356 318.525L126.373 318.402V318.4L126.39 318.279L126.406 318.159V318.158L126.422 318.039L126.438 317.921L126.454 317.803L126.469 317.688L126.485 317.573L126.5 317.46L126.515 317.348L126.53 317.237V317.236L126.545 317.127L126.559 317.019V317.018L126.574 316.911L126.588 316.805L126.602 316.701L126.616 316.597L126.629 316.494L126.643 316.392V316.391L126.656 316.292V316.291L126.669 316.193V316.192L126.682 316.095L135.44 300.612L151.425 306.749Z" fill="#0E1632"/>
<path fill-rule="evenodd" clip-rule="evenodd" d="M128.775 307.5C123.53 321.83 122.104 370.975 126.425 397.358H149.435C140.024 344.986 159.79 307.525 155.447 294.254C148.495 273.007 132.223 298.082 128.775 307.5Z" fill="#383D5D"/>
<path fill-rule="evenodd" clip-rule="evenodd" d="M220.803 259.055L223.368 257.931C223.368 257.931 227.706 252.607 230.829 246.497C230.219 247.659 226.178 254.724 220.262 250.406C213.83 245.709 213.571 253.147 213.571 253.147C213.571 253.147 217.462 257.567 219.721 258.6C220.015 258.735 220.382 258.889 220.803 259.055ZM230.907 246.344L230.91 246.339V246.338L230.907 246.344Z" fill="#010518"/>
<path fill-rule="evenodd" clip-rule="evenodd" d="M218.075 254.785C214.047 254.369 210.442 257.297 210.025 261.326C209.607 265.355 212.536 268.96 216.564 269.377C220.594 269.794 224.199 266.866 224.616 262.837C225.034 258.808 222.105 255.203 218.075 254.785Z" fill="#E8685B"/>
<path fill-rule="evenodd" clip-rule="evenodd" d="M166.987 249.578C166.804 249.587 166.623 249.602 166.444 249.624L166.439 249.625C163.121 250.032 160.404 252.684 160.045 256.149C159.628 260.178 162.557 263.784 166.585 264.201C170.614 264.617 174.22 261.689 174.637 257.661C174.88 255.319 173.992 253.121 172.416 251.609C172.419 253.782 171.852 256.423 169.075 256.459L169.51 252.252C169.686 250.548 168.161 249.628 166.987 249.578Z" fill="#E8685B"/>
<path fill-rule="evenodd" clip-rule="evenodd" d="M198.576 215.475C184.831 214.052 172.422 224.132 170.998 237.876L168.645 260.587C167.222 274.331 177.302 286.74 191.047 288.164C204.791 289.587 217.201 279.508 218.625 265.763L220.977 243.052C222.4 229.308 212.32 216.898 198.576 215.475Z" fill="#F4AD85"/>
<path fill-rule="evenodd" clip-rule="evenodd" d="M170.586 241.859L168.646 260.588C167.455 272.095 174.327 282.663 184.66 286.636C170.038 280.578 177.534 255.163 177.534 255.163C180.495 254.658 185.165 249.14 187.88 245.928C190.594 242.717 192.696 239.476 197.381 239.571C202.066 239.666 211.966 242.126 211.966 242.126C214.036 247.019 217.843 250.58 220.017 252.324L220.977 243.054C221.264 240.284 221.084 237.571 220.501 234.988C219.895 234.633 219.273 234.272 218.616 233.902C198.494 222.589 181.416 231.741 170.586 241.859Z" fill="#ED9072"/>
<path fill-rule="evenodd" clip-rule="evenodd" d="M217.235 235.945L213.172 237.671C213.172 237.671 209.388 235.341 204.98 236.353C204.98 236.353 196.059 233.074 191.333 234.901C186.606 236.728 189.386 230.164 190.253 229.876C191.12 229.589 200.072 229.021 203.98 229.772C207.887 230.522 213.767 231.44 213.767 231.44L217.235 235.945Z" fill="#010518"/>
<path fill-rule="evenodd" clip-rule="evenodd" d="M169.721 248.363L172.129 248.787C172.129 248.787 173.801 256.399 169.074 256.459L169.509 252.252C169.539 251.959 169.519 251.691 169.46 251.445L169.721 248.363Z" fill="#010518"/>
<path fill-rule="evenodd" clip-rule="evenodd" d="M204.979 236.354C201.307 231.398 195.307 230.386 190.641 237.345C186.379 243.702 180.048 254.705 169.396 253.807L169.342 253.612L169.368 253.615L169.967 246.516C169.967 246.516 169.071 246.75 167.981 247.006C167.413 243.297 167.017 238.594 167.613 234.284C168.847 225.363 181.258 212.332 195.259 211.83C209.259 211.328 219.387 219.642 221.394 224.384C223.4 229.126 225.38 239.882 225.38 239.882L222.917 243.405L220.263 250.408C213.823 244.143 214.484 238.219 211.685 235.233C210.169 233.616 207.903 233.611 204.979 236.354Z" fill="#0E1632"/>
<path fill-rule="evenodd" clip-rule="evenodd" d="M189.185 239.547C184.96 245.94 178.898 254.607 169.396 253.806L169.342 253.611L169.368 253.614L169.967 246.515C169.967 246.515 169.071 246.749 167.981 247.005C167.887 246.392 167.798 245.75 167.717 245.087C178.447 248.202 189.149 239.575 189.185 239.547Z" fill="#010518"/>
<path fill-rule="evenodd" clip-rule="evenodd" d="M200.227 296.167C200.227 296.167 206.764 349.798 206.635 351.539C206.506 353.28 204.769 361.667 204.769 361.667C204.769 361.667 207.925 356.376 208.699 351.99C209.473 347.604 211.537 317.936 211.537 317.936L208.055 316.066L211.28 315.873L205.957 299.212C205.957 299.212 205.347 297.975 204.508 297.491C203.67 297.007 200.614 295.474 200.566 295.451C200.518 295.427 199.751 295.344 199.371 295.596C199.371 295.596 200.004 296.027 200.227 296.167Z" fill="#484E6A"/>
<path fill-rule="evenodd" clip-rule="evenodd" d="M168.84 285.056C168.84 285.056 178.143 330.124 179.418 343.225C179.941 348.595 179.561 353.339 178.612 357.747C180.325 344.346 161.467 312.813 161.467 312.813L166.368 310.491L159.79 307.524C159.79 307.524 162.821 290.562 163.015 287.725C163.203 284.966 161.741 284.454 161.659 284.426C163.824 284.526 166.21 284.726 168.84 285.056Z" fill="#484E6A"/>
<path fill-rule="evenodd" clip-rule="evenodd" d="M-17.285 417.262H-9.141C-5.895 417.262 -3.238 414.607 -3.238 411.361C-3.238 408.115 -5.895 405.459 -9.141 405.459H-30.656C-33.23 405.459 -35.341 403.352 -35.341 400.775C-35.341 398.198 -33.232 396.089 -30.656 396.089H537.76C540.336 396.089 542.445 398.197 542.445 400.775C542.445 403.351 540.334 405.459 537.76 405.459H508.253C505.006 405.459 502.351 408.115 502.351 411.361C502.351 414.607 505.006 417.262 508.253 417.262H515.168C520.321 417.262 524.536 421.479 524.536 426.631C524.536 431.784 520.317 436 515.168 436H-17.285C-22.433 436 -26.654 431.784 -26.654 426.631C-26.653 421.479 -22.437 417.262 -17.285 417.262ZM-43.315 396.089C-40.728 396.089 -38.63 398.187 -38.63 400.775C-38.63 403.361 -40.728 405.46 -43.315 405.46C-45.902 405.46 -48 403.361 -48 400.775C-48 398.187 -45.902 396.089 -43.315 396.089Z" fill="#01020E"/>
<path fill-rule="evenodd" clip-rule="evenodd" d="M273.661 150.535H230.96C228.888 150.535 227.004 151.382 225.639 152.747C224.274 154.112 223.427 155.996 223.427 158.068V195.263C223.427 195.591 223.525 195.901 223.701 196.165C223.876 196.426 224.124 196.634 224.428 196.76H224.431C224.738 196.886 225.059 196.917 225.363 196.856C225.674 196.795 225.963 196.644 226.196 196.41L237.277 185.328H273.661C275.733 185.328 277.618 184.481 278.982 183.116C280.347 181.751 281.195 179.867 281.195 177.794V158.068C281.195 155.995 280.347 154.111 278.982 152.747C277.618 151.382 275.733 150.535 273.661 150.535ZM230.96 152.294H273.661C275.249 152.294 276.692 152.944 277.739 153.991C278.786 155.038 279.436 156.482 279.436 158.069V177.795C279.436 179.383 278.786 180.826 277.739 181.873C276.692 182.92 275.249 183.57 273.661 183.57H236.549L225.186 194.934V158.068C225.186 156.481 225.836 155.037 226.883 153.99C227.93 152.944 229.374 152.294 230.96 152.294Z" fill="#1A293D"/>
<path fill-rule="evenodd" clip-rule="evenodd" d="M274.017 157.89C274.283 157.89 274.497 157.674 274.497 157.41C274.497 157.144 274.282 156.929 274.017 156.929H230.605C230.339 156.929 230.124 157.144 230.124 157.41C230.124 157.675 230.339 157.89 230.605 157.89H274.017Z" fill="#1A293D"/>
<path fill-rule="evenodd" clip-rule="evenodd" d="M274.017 162.582C274.283 162.582 274.497 162.367 274.497 162.101C274.497 161.836 274.282 161.621 274.017 161.621H269.418C269.153 161.621 268.938 161.837 268.938 162.101C268.938 162.367 269.154 162.582 269.418 162.582H274.017ZM263.296 162.582C263.562 162.582 263.776 162.367 263.776 162.101C263.776 161.836 263.561 161.621 263.296 161.621H230.605C230.339 161.621 230.124 161.837 230.124 162.101C230.124 162.367 230.339 162.582 230.605 162.582H263.296Z" fill="#1A293D"/>
<path fill-rule="evenodd" clip-rule="evenodd" d="M274.017 167.273C274.283 167.273 274.497 167.057 274.497 166.792C274.497 166.526 274.282 166.311 274.017 166.311H230.605C230.339 166.311 230.124 166.526 230.124 166.792C230.124 167.057 230.339 167.273 230.605 167.273H274.017Z" fill="#1A293D"/>
<path fill-rule="evenodd" clip-rule="evenodd" d="M261.944 173.633C262.21 173.633 262.424 173.417 262.424 173.152C262.424 172.886 262.21 172.672 261.944 172.672H230.605C230.339 172.672 230.124 172.887 230.124 173.152C230.124 173.417 230.339 173.633 230.605 173.633H261.944Z" fill="#1A293D"/>
<path fill-rule="evenodd" clip-rule="evenodd" d="M247.95 178.722C248.216 178.722 248.431 178.506 248.431 178.241C248.431 177.976 248.215 177.761 247.95 177.761H230.605C230.339 177.761 230.124 177.976 230.124 178.241C230.124 178.507 230.339 178.722 230.605 178.722H247.95Z" fill="#1A293D"/>
<path fill-rule="evenodd" clip-rule="evenodd" d="M257.89 178.722C258.155 178.722 258.37 178.506 258.37 178.241C258.37 177.976 258.155 177.761 257.89 177.761H251.688C251.422 177.761 251.206 177.976 251.206 178.241C251.206 178.507 251.422 178.722 251.688 178.722H257.89Z" fill="#1A293D"/>
</g>
<path fill-rule="evenodd" clip-rule="evenodd" d="M1127.87 214.82C1127.87 214.215 1127.38 213.724 1126.77 213.724C1126.16 213.724 1125.67 214.215 1125.67 214.82V217.397H1123.1C1122.49 217.397 1122 217.888 1122 218.494C1122 219.099 1122.49 219.59 1123.1 219.59H1125.67V222.168C1125.67 222.773 1126.16 223.264 1126.77 223.264C1127.38 223.264 1127.87 222.773 1127.87 222.168V219.59H1130.44C1131.05 219.59 1131.54 219.099 1131.54 218.494C1131.54 217.888 1131.05 217.397 1130.44 217.397H1127.87V214.82Z" fill="#BFCCE8"/>
<path fill-rule="evenodd" clip-rule="evenodd" d="M862.866 336.096C862.866 335.491 862.376 335 861.77 335C861.164 335 860.674 335.491 860.674 336.096V338.673H858.097C857.492 338.673 857 339.164 857 339.77C857 340.375 857.491 340.866 858.097 340.866H860.674V343.444C860.674 344.049 861.164 344.54 861.77 344.54C862.375 344.54 862.866 344.049 862.866 343.444V340.866H865.444C866.048 340.866 866.54 340.375 866.54 339.77C866.54 339.164 866.049 338.673 865.444 338.673H862.866V336.096Z" fill="#BFCCE8"/>
<path fill-rule="evenodd" clip-rule="evenodd" d="M703.866 120.096C703.866 119.491 703.376 119 702.77 119C702.164 119 701.674 119.491 701.674 120.096V122.673H699.097C698.492 122.673 698 123.164 698 123.77C698 124.375 698.491 124.866 699.097 124.866H701.674V127.444C701.674 128.049 702.164 128.54 702.77 128.54C703.375 128.54 703.866 128.049 703.866 127.444V124.866H706.444C707.048 124.866 707.54 124.375 707.54 123.77C707.54 123.164 707.049 122.673 706.444 122.673H703.866V120.096Z" fill="#BFCCE8"/>
</g>
</g>
<defs>
<linearGradient id="paint0_linear_148_2610" x1="430.5" y1="-85" x2="430.5" y2="443" gradientUnits="userSpaceOnUse">
<stop stop-color="white" stop-opacity="0.25"/>
<stop offset="0.501" stop-color="#FF866D" stop-opacity="0.75"/>
<stop offset="1" stop-color="white" stop-opacity="0.25"/>
</linearGradient>
<linearGradient id="paint1_linear_148_2610" x1="342.5" y1="-85" x2="342.5" y2="443" gradientUnits="userSpaceOnUse">
<stop stop-color="white" stop-opacity="0.25"/>
<stop offset="0.501" stop-color="#FF866D" stop-opacity="0.75"/>
<stop offset="1" stop-color="white" stop-opacity="0.25"/>
</linearGradient>
<linearGradient id="paint2_linear_148_2610" x1="386.5" y1="-85" x2="386.5" y2="443" gradientUnits="userSpaceOnUse">
<stop stop-color="white" stop-opacity="0.25"/>
<stop offset="0.501" stop-color="#FF866D" stop-opacity="0.75"/>
<stop offset="1" stop-color="white" stop-opacity="0.25"/>
</linearGradient>
<linearGradient id="paint3_linear_148_2610" x1="518.5" y1="-85" x2="518.5" y2="443" gradientUnits="userSpaceOnUse">
<stop stop-color="white" stop-opacity="0.25"/>
<stop offset="0.501" stop-color="#FF866D" stop-opacity="0.75"/>
<stop offset="1" stop-color="white" stop-opacity="0.25"/>
</linearGradient>
<linearGradient id="paint4_linear_148_2610" x1="474.5" y1="-85" x2="474.5" y2="443" gradientUnits="userSpaceOnUse">
<stop stop-color="white" stop-opacity="0.25"/>
<stop offset="0.501" stop-color="#FF866D" stop-opacity="0.75"/>
<stop offset="1" stop-color="white" stop-opacity="0.25"/>
</linearGradient>
<linearGradient id="paint5_linear_148_2610" x1="606.5" y1="-85" x2="606.5" y2="443" gradientUnits="userSpaceOnUse">
<stop stop-color="white" stop-opacity="0.25"/>
<stop offset="0.501" stop-color="#FF866D" stop-opacity="0.75"/>
<stop offset="1" stop-color="white" stop-opacity="0.25"/>
</linearGradient>
<linearGradient id="paint6_linear_148_2610" x1="562.5" y1="-85" x2="562.5" y2="443" gradientUnits="userSpaceOnUse">
<stop stop-color="white" stop-opacity="0.25"/>
<stop offset="0.501" stop-color="#FF866D" stop-opacity="0.75"/>
<stop offset="1" stop-color="white" stop-opacity="0.25"/>
</linearGradient>
<linearGradient id="paint7_linear_148_2610" x1="694.5" y1="-85" x2="694.5" y2="443" gradientUnits="userSpaceOnUse">
<stop stop-color="white" stop-opacity="0.25"/>
<stop offset="0.501" stop-color="#FF866D" stop-opacity="0.75"/>
<stop offset="1" stop-color="white" stop-opacity="0.25"/>
</linearGradient>
<linearGradient id="paint8_linear_148_2610" x1="650.5" y1="-85" x2="650.5" y2="443" gradientUnits="userSpaceOnUse">
<stop stop-color="white" stop-opacity="0.25"/>
<stop offset="0.501" stop-color="#FF866D" stop-opacity="0.75"/>
<stop offset="1" stop-color="white" stop-opacity="0.25"/>
</linearGradient>
<linearGradient id="paint9_linear_148_2610" x1="782.5" y1="-85" x2="782.5" y2="443" gradientUnits="userSpaceOnUse">
<stop stop-color="white" stop-opacity="0.25"/>
<stop offset="0.501" stop-color="#FF866D" stop-opacity="0.75"/>
<stop offset="1" stop-color="white" stop-opacity="0.25"/>
</linearGradient>
<linearGradient id="paint10_linear_148_2610" x1="738.5" y1="-85" x2="738.5" y2="443" gradientUnits="userSpaceOnUse">
<stop stop-color="white" stop-opacity="0.25"/>
<stop offset="0.501" stop-color="#FF866D" stop-opacity="0.75"/>
<stop offset="1" stop-color="white" stop-opacity="0.25"/>
</linearGradient>
<linearGradient id="paint11_linear_148_2610" x1="958.5" y1="-85" x2="958.5" y2="443" gradientUnits="userSpaceOnUse">
<stop stop-color="white" stop-opacity="0.25"/>
<stop offset="0.501" stop-color="#FF866D" stop-opacity="0.75"/>
<stop offset="1" stop-color="white" stop-opacity="0.25"/>
</linearGradient>
<linearGradient id="paint12_linear_148_2610" x1="826.5" y1="-85" x2="826.5" y2="443" gradientUnits="userSpaceOnUse">
<stop stop-color="white" stop-opacity="0.25"/>
<stop offset="0.501" stop-color="#FF866D" stop-opacity="0.75"/>
<stop offset="1" stop-color="white" stop-opacity="0.25"/>
</linearGradient>
<linearGradient id="paint13_linear_148_2610" x1="870.5" y1="-85" x2="870.5" y2="443" gradientUnits="userSpaceOnUse">
<stop stop-color="white" stop-opacity="0.25"/>
<stop offset="0.501" stop-color="#FF866D" stop-opacity="0.75"/>
<stop offset="1" stop-color="white" stop-opacity="0.25"/>
</linearGradient>
<linearGradient id="paint14_linear_148_2610" x1="914.5" y1="-85" x2="914.5" y2="443" gradientUnits="userSpaceOnUse">
<stop stop-color="white" stop-opacity="0.25"/>
<stop offset="0.501" stop-color="#FF866D" stop-opacity="0.75"/>
<stop offset="1" stop-color="white" stop-opacity="0.25"/>
</linearGradient>
<linearGradient id="paint15_linear_148_2610" x1="1046.5" y1="-85" x2="1046.5" y2="443" gradientUnits="userSpaceOnUse">
<stop stop-color="white" stop-opacity="0.25"/>
<stop offset="0.501" stop-color="#FF866D" stop-opacity="0.75"/>
<stop offset="1" stop-color="white" stop-opacity="0.25"/>
</linearGradient>
<linearGradient id="paint16_linear_148_2610" x1="1002.5" y1="-85" x2="1002.5" y2="443" gradientUnits="userSpaceOnUse">
<stop stop-color="white" stop-opacity="0.25"/>
<stop offset="0.501" stop-color="#FF866D" stop-opacity="0.75"/>
<stop offset="1" stop-color="white" stop-opacity="0.25"/>
</linearGradient>
<linearGradient id="paint17_linear_148_2610" x1="1134.5" y1="-85" x2="1134.5" y2="443" gradientUnits="userSpaceOnUse">
<stop stop-color="white" stop-opacity="0.25"/>
<stop offset="0.501" stop-color="#FF866D" stop-opacity="0.75"/>
<stop offset="1" stop-color="white" stop-opacity="0.25"/>
</linearGradient>
<linearGradient id="paint18_linear_148_2610" x1="1090.5" y1="-85" x2="1090.5" y2="443" gradientUnits="userSpaceOnUse">
<stop stop-color="white" stop-opacity="0.25"/>
<stop offset="0.501" stop-color="#FF866D" stop-opacity="0.75"/>
<stop offset="1" stop-color="white" stop-opacity="0.25"/>
</linearGradient>
<linearGradient id="paint19_linear_148_2610" x1="1222.5" y1="-85" x2="1222.5" y2="443" gradientUnits="userSpaceOnUse">
<stop stop-color="white" stop-opacity="0.25"/>
<stop offset="0.501" stop-color="#FF866D" stop-opacity="0.75"/>
<stop offset="1" stop-color="white" stop-opacity="0.25"/>
</linearGradient>
<linearGradient id="paint20_linear_148_2610" x1="1178.5" y1="-85" x2="1178.5" y2="443" gradientUnits="userSpaceOnUse">
<stop stop-color="white" stop-opacity="0.25"/>
<stop offset="0.501" stop-color="#FF866D" stop-opacity="0.75"/>
<stop offset="1" stop-color="white" stop-opacity="0.25"/>
</linearGradient>
<linearGradient id="paint21_linear_148_2610" x1="1310.5" y1="-85" x2="1310.5" y2="443" gradientUnits="userSpaceOnUse">
<stop stop-color="white" stop-opacity="0.25"/>
<stop offset="0.501" stop-color="#FF866D" stop-opacity="0.75"/>
<stop offset="1" stop-color="white" stop-opacity="0.25"/>
</linearGradient>
<linearGradient id="paint22_linear_148_2610" x1="1266.5" y1="-85" x2="1266.5" y2="443" gradientUnits="userSpaceOnUse">
<stop stop-color="white" stop-opacity="0.25"/>
<stop offset="0.501" stop-color="#FF866D" stop-opacity="0.75"/>
<stop offset="1" stop-color="white" stop-opacity="0.25"/>
</linearGradient>
<linearGradient id="paint23_linear_148_2610" x1="300" y1="94.5" x2="1400" y2="94.5" gradientUnits="userSpaceOnUse">
<stop stop-color="white" stop-opacity="0.1"/>
<stop offset="0.5" stop-color="#FF7C93" stop-opacity="0.6"/>
<stop offset="1" stop-color="white" stop-opacity="0.1"/>
</linearGradient>
<linearGradient id="paint24_linear_148_2610" x1="300" y1="358.5" x2="1400" y2="358.5" gradientUnits="userSpaceOnUse">
<stop stop-color="white" stop-opacity="0.1"/>
<stop offset="0.5" stop-color="#FF7C93" stop-opacity="0.6"/>
<stop offset="1" stop-color="white" stop-opacity="0.1"/>
</linearGradient>
<linearGradient id="paint25_linear_148_2610" x1="300" y1="138.5" x2="1400" y2="138.5" gradientUnits="userSpaceOnUse">
<stop stop-color="white" stop-opacity="0.1"/>
<stop offset="0.5" stop-color="#FF7C93" stop-opacity="0.6"/>
<stop offset="1" stop-color="white" stop-opacity="0.1"/>
</linearGradient>
<linearGradient id="paint26_linear_148_2610" x1="300" y1="6.5" x2="1400" y2="6.50001" gradientUnits="userSpaceOnUse">
<stop stop-color="white" stop-opacity="0.1"/>
<stop offset="0.5" stop-color="#FF7C93" stop-opacity="0.6"/>
<stop offset="1" stop-color="white" stop-opacity="0.1"/>
</linearGradient>
<linearGradient id="paint27_linear_148_2610" x1="300" y1="270.5" x2="1400" y2="270.5" gradientUnits="userSpaceOnUse">
<stop stop-color="white" stop-opacity="0.1"/>
<stop offset="0.5" stop-color="#FF7C93" stop-opacity="0.6"/>
<stop offset="1" stop-color="white" stop-opacity="0.1"/>
</linearGradient>
<linearGradient id="paint28_linear_148_2610" x1="300" y1="182.5" x2="1400" y2="182.5" gradientUnits="userSpaceOnUse">
<stop stop-color="white" stop-opacity="0.1"/>
<stop offset="0.5" stop-color="#FF7C93" stop-opacity="0.6"/>
<stop offset="1" stop-color="white" stop-opacity="0.1"/>
</linearGradient>
<linearGradient id="paint29_linear_148_2610" x1="300" y1="226.5" x2="1400" y2="226.5" gradientUnits="userSpaceOnUse">
<stop stop-color="white" stop-opacity="0.1"/>
<stop offset="0.5" stop-color="#FF7C93" stop-opacity="0.6"/>
<stop offset="1" stop-color="white" stop-opacity="0.1"/>
</linearGradient>
<linearGradient id="paint30_linear_148_2610" x1="300" y1="50.5" x2="1400" y2="50.5" gradientUnits="userSpaceOnUse">
<stop stop-color="white" stop-opacity="0.1"/>
<stop offset="0.5" stop-color="#FF7C93" stop-opacity="0.6"/>
<stop offset="1" stop-color="white" stop-opacity="0.1"/>
</linearGradient>
<linearGradient id="paint31_linear_148_2610" x1="300" y1="314.5" x2="1400" y2="314.5" gradientUnits="userSpaceOnUse">
<stop stop-color="white" stop-opacity="0.1"/>
<stop offset="0.5" stop-color="#FF7C93" stop-opacity="0.6"/>
<stop offset="1" stop-color="white" stop-opacity="0.1"/>
</linearGradient>
<linearGradient id="paint32_linear_148_2610" x1="127.696" y1="341.254" x2="222.674" y2="341.254" gradientUnits="userSpaceOnUse">
<stop offset="1.33195e-07" stop-color="#B92F6D"/>
<stop offset="1" stop-color="#BF5A00"/>
</linearGradient>
<clipPath id="clip0_148_2610">
<rect width="1440" height="400" fill="white"/>
</clipPath>
<clipPath id="clip1_148_2610">
<rect width="1920" height="400" fill="white"/>
</clipPath>
<clipPath id="clip2_148_2610">
<rect width="627.832" height="400" fill="white" transform="translate(-48 36)"/>
</clipPath>
</defs>
</svg>
